<svg width="124" height="42" viewBox="0 0 124 42" fill="none" xmlns="http://www.w3.org/2000/svg">
<g clip-path="url(#clip0_1226_15271)">
<path d="M47.5608 17.0606V5.32349H49.362L54.2138 11.1268L59.0656 5.32349H60.8668V17.0606H59.5524V6.82322L54.2138 13.1971L48.8752 6.82322V17.0606H47.5608ZM63.8644 17.0606V7.27967C63.8644 6.73629 64.0538 6.27441 64.4324 5.89404C64.811 5.51367 65.2708 5.32349 65.8117 5.32349H73.6006C74.1414 5.32349 74.6012 5.51367 74.9799 5.89404C75.3585 6.27441 75.5477 6.73629 75.5477 7.27967V17.0606H74.2334V12.7733H65.1788V17.0606H63.8644ZM65.1788 11.4529H74.2334V7.27967C74.2334 7.10578 74.1685 6.95907 74.0387 6.83953C73.9197 6.70911 73.7736 6.64391 73.6006 6.64391H65.8117C65.6385 6.64391 65.4872 6.70911 65.3573 6.83953C65.2383 6.95907 65.1788 7.10578 65.1788 7.27967V11.4529ZM78.6296 17.0606V5.32349H79.9602V10.5236H83.725L88.0742 5.32349H89.7615V5.33979L84.8776 11.192L89.7775 17.0443V17.0606H88.0742L83.725 11.8604H79.9602V17.0606H78.6296ZM92.6964 17.0606V5.32349H94.0269V17.0606H92.6964ZM97.4487 17.0606V5.32349H99.2502L107.818 15.5609V5.32349H109.132V17.0606H107.331L98.7633 6.82322V17.0606H97.4487ZM114.114 17.0606C113.573 17.0606 113.114 16.8704 112.735 16.49C112.356 16.1096 112.167 15.6478 112.167 15.1044V7.27967C112.167 6.73629 112.356 6.27441 112.735 5.89404C113.114 5.51367 113.573 5.32349 114.114 5.32349H121.903C122.444 5.32349 122.904 5.51367 123.283 5.89404C123.661 6.27441 123.85 6.73629 123.85 7.27967V7.75243H122.536V7.27967C122.536 7.10578 122.471 6.95907 122.342 6.83953C122.222 6.70911 122.076 6.64391 121.903 6.64391H114.114C113.941 6.64391 113.789 6.70911 113.66 6.83953C113.541 6.95907 113.481 7.10578 113.481 7.27967V15.1044C113.481 15.2782 113.541 15.4304 113.66 15.5609C113.789 15.6804 113.941 15.7402 114.114 15.7402H121.903C122.076 15.7402 122.222 15.6804 122.342 15.5609C122.471 15.4304 122.536 15.2782 122.536 15.1044V12.2027H119.648V10.866H123.85V15.1044C123.85 15.6478 123.661 16.1096 123.283 16.49C122.904 16.8704 122.444 17.0606 121.903 17.0606H114.114Z" fill="white"/>
<path d="M50.5316 38.6601C49.797 38.6601 49.1724 38.4018 48.6581 37.8851C48.1438 37.3685 47.8867 36.7411 47.8867 36.003V25.3745C47.8867 24.6364 48.1438 24.0089 48.6581 23.4923C49.1724 22.9756 49.797 22.7173 50.5316 22.7173H63.7125V24.5109H50.5316C50.2965 24.5109 50.0908 24.5994 49.9145 24.7766C49.7529 24.9389 49.672 25.1382 49.672 25.3745V36.003C49.672 36.2392 49.7529 36.4458 49.9145 36.623C50.0908 36.7854 50.2965 36.8666 50.5316 36.8666H63.7125V38.6601H50.5316ZM67.7078 38.6601V25.3745C67.7078 24.6364 67.965 24.0089 68.4792 23.4923C68.9936 22.9756 69.6181 22.7173 70.3527 22.7173H80.9325C81.6674 22.7173 82.2919 22.9756 82.8062 23.4923C83.3204 24.0089 83.5776 24.6364 83.5776 25.3745V38.6601H81.7921V32.8366H69.4931V38.6601H67.7078ZM69.4931 31.043H81.7921V25.3745C81.7921 25.1382 81.7039 24.9389 81.5274 24.7766C81.3661 24.5994 81.1676 24.5109 80.9325 24.5109H70.3527C70.1177 24.5109 69.9119 24.5994 69.7356 24.7766C69.574 24.9389 69.4931 25.1382 69.4931 25.3745V31.043ZM90.2766 38.6601C89.5425 38.6601 88.9179 38.4018 88.4037 37.8851C87.8894 37.3685 87.6315 36.7411 87.6315 36.003V35.383H89.417V36.003C89.417 36.2392 89.4984 36.4458 89.6597 36.623C89.8362 36.7854 90.0415 36.8666 90.2766 36.8666H100.857C101.092 36.8666 101.291 36.7854 101.452 36.623C101.628 36.4458 101.717 36.2392 101.717 36.003V32.438C101.717 32.2018 101.628 32.0024 101.452 31.8401C101.291 31.6778 101.092 31.5966 100.857 31.5966H90.2766C89.5425 31.5966 88.9179 31.3382 88.4037 30.8216C87.8894 30.2901 87.6315 29.6628 87.6315 28.9394V25.3745C87.6315 24.6364 87.8894 24.0089 88.4037 23.4923C88.9179 22.9756 89.5425 22.7173 90.2766 22.7173H100.857C101.591 22.7173 102.216 22.9756 102.731 23.4923C103.245 24.0089 103.502 24.6364 103.502 25.3745V25.9945H101.717V25.3745C101.717 25.1382 101.628 24.9389 101.452 24.7766C101.291 24.5994 101.092 24.5109 100.857 24.5109H90.2766C90.0415 24.5109 89.8362 24.5994 89.6597 24.7766C89.4984 24.9389 89.417 25.1382 89.417 25.3745V28.9394C89.417 29.1756 89.4984 29.3749 89.6597 29.5373C89.8362 29.6996 90.0415 29.7809 90.2766 29.7809H100.857C101.591 29.7809 102.216 30.0466 102.731 30.578C103.245 31.0946 103.502 31.7146 103.502 32.438V36.003C103.502 36.7411 103.245 37.3685 102.731 37.8851C102.216 38.4018 101.591 38.6601 100.857 38.6601H90.2766ZM107.541 38.6601V22.7173H109.326V29.7809H122V22.7173H123.808V38.6601H122V31.5966H109.326V38.6601H107.541Z" fill="white"/>
<path d="M32.9946 41.9883V27.249L27.3152 30.713L27.3828 38.4563L32.9946 41.9883Z" fill="#404C88"/>
<path d="M0 37.8746V14.4116L20.1483 26.5698L39.9513 14.4116V37.8746L32.9946 42.0562V27.2598L19.9454 35.2639L7.03162 27.3169L6.96745 42.0562L0 37.8746Z" fill="url(#paint0_linear_1226_15271)"/>
<path d="M0 11.0915L19.337 0.0119629L25.2868 3.20433L13.1843 10.6079L19.337 14.2079L32.1156 6.80425L40.0262 11.0834L20.1483 23.3774L0 11.0915Z" fill="url(#paint1_linear_1226_15271)"/>
<path opacity="0.4" d="M6.90887 7.1438L0 11.113L20.0807 23.3773L27.5856 18.7586L6.90887 7.1438Z" fill="white"/>
<path opacity="0.4" d="M13.1836 10.6758L5.8147 14.6528L12.272 18.5548L19.337 14.2026L13.1836 10.6758Z" fill="white"/>
<path d="M7.03149 41.9882V27.3169L12.6432 30.781V38.4562L7.03149 41.9882Z" fill="#404C88"/>
<path d="M20.1483 26.5699L0 14.4117V11.0835L20.0807 23.3775L20.1483 26.5699Z" fill="url(#paint2_linear_1226_15271)"/>
<path d="M25.3544 10.7438L25.2868 3.20435L13.1843 10.6079L19.3369 14.2079L25.3544 10.7438Z" fill="#3FA3C7"/>
<path d="M20.1484 26.5699L40.0262 14.4117V11.0835L20.0808 23.3775L20.1484 26.5699Z" fill="url(#paint3_linear_1226_15271)"/>
<path d="M19.9454 35.2639L0 22.902V14.4116L20.216 26.5698L19.9454 35.2639Z" fill="url(#paint4_linear_1226_15271)"/>
</g>
<defs>
<linearGradient id="paint0_linear_1226_15271" x1="23.7317" y1="20.185" x2="27.4161" y2="58.2186" gradientUnits="userSpaceOnUse">
<stop offset="0.290854" stop-color="#9DACE5"/>
<stop offset="0.523036" stop-color="#9DACE5"/>
<stop offset="0.830326" stop-color="#9DACE5"/>
</linearGradient>
<linearGradient id="paint1_linear_1226_15271" x1="7.91341" y1="-0.0730553" x2="42.6484" y2="18.7745" gradientUnits="userSpaceOnUse">
<stop offset="0.0398474" stop-color="#77DBFF"/>
<stop offset="1" stop-color="#77DBFF"/>
</linearGradient>
<linearGradient id="paint2_linear_1226_15271" x1="10.0741" y1="11.0835" x2="10.0741" y2="26.5699" gradientUnits="userSpaceOnUse">
<stop stop-color="#3FA2C9"/>
<stop offset="1" stop-color="#3FA2C5"/>
</linearGradient>
<linearGradient id="paint3_linear_1226_15271" x1="30.0535" y1="11.0835" x2="30.0535" y2="26.5699" gradientUnits="userSpaceOnUse">
<stop stop-color="#3FA2C9"/>
<stop offset="1" stop-color="#3FA2C5"/>
</linearGradient>
<linearGradient id="paint4_linear_1226_15271" x1="5.34133" y1="21.6114" x2="10.079" y2="35.2505" gradientUnits="userSpaceOnUse">
<stop stop-color="#A0ACDE" stop-opacity="0.22"/>
<stop offset="1" stop-color="#8691BE"/>
</linearGradient>
<clipPath id="clip0_1226_15271">
<rect width="124" height="41.8405" fill="white" transform="translate(0 0.079834)"/>
</clipPath>
</defs>
</svg>
