<svg width="819" height="802" viewBox="0 0 819 802" fill="none" xmlns="http://www.w3.org/2000/svg">
<g opacity="0.8">
<path d="M674.007 483.055L673.372 482.2C623.943 414.103 465.314 322.593 319.636 278.087L318.937 277.877L319.243 277.234C365.683 180.126 426.541 116.976 478.048 112.434C500.34 110.46 519.842 120.017 534.485 140.015C602.219 160.822 654.498 205.776 681.962 266.835C696.516 299.391 703.468 334.717 702.312 370.238C701.307 408.03 691.956 445.656 674.489 482.2L674.007 483.055ZM443.454 324.128C546.048 370.954 637.758 431.738 673.773 480.616C690.93 444.568 700.044 407.363 701.034 370.11C702.166 334.766 695.245 299.619 680.774 267.221C653.463 206.542 601.317 161.74 533.877 141.177L533.693 141.093L533.575 140.911C518.952 120.831 500.359 111.671 478.172 113.62C427.223 118.161 366.923 180.765 320.695 277.113C362.622 290.135 403.63 305.84 443.454 324.128V324.128Z" fill="#59DECE" fill-opacity="0.4"/>
<path d="M649.866 217.304C624.995 183.038 545.011 136.932 471.627 114.476L472.001 113.299C545.627 135.793 625.874 182.128 650.895 216.59L649.866 217.304Z" fill="#59DECE" fill-opacity="0.4"/>
<path d="M700.047 339.787C657.399 281.124 520.457 202.045 394.726 163.619L395.1 162.442C521.044 200.928 658.315 280.176 701.075 339.073L700.047 339.787Z" fill="#59DECE" fill-opacity="0.4"/>
<path d="M593.102 408.714L591.956 408.191C635.119 317.931 642.36 234.17 611.32 184.101C594.762 157.418 568.081 142.508 534.051 141.201L534.038 139.939C568.486 141.345 595.555 156.377 612.342 183.438C643.703 233.89 636.443 318.08 593.102 408.714Z" fill="#59DECE" fill-opacity="0.4"/>
<path d="M466.082 335.402L464.936 334.879C525.702 207.79 551.02 137.125 544.542 133.112C543.912 132.715 541.633 132.658 534.565 140.981L533.585 140.187C539.419 133.324 543.125 130.735 545.229 132.059C554.855 138.056 512.423 238.504 466.082 335.402Z" fill="#59DECE" fill-opacity="0.4"/>
<path d="M145.24 321.473L144.605 320.619C129.14 299.298 125.601 281.763 134.364 269.916C142.605 258.814 161.219 253.158 187.783 252.878C249.477 178.98 342.227 132.608 435.345 128.062C449.942 119.005 464.325 113.639 478.11 112.462C500.462 110.479 520.01 120.094 534.651 140.255L535.787 141.775L533.984 141.225C502.229 131.647 469 127.622 435.819 129.334C395.932 154.206 354.399 206.924 320.511 277.813L320.276 278.306L319.787 278.083C266.838 261.894 221.584 253.843 188.592 254.03C171.603 274.384 157.232 296.705 145.801 320.491L145.24 321.473ZM186.797 254.049C161.225 254.435 143.338 259.932 135.388 270.657C127.075 281.871 130.41 298.584 145.021 319.042C156.254 295.826 170.279 274.007 186.797 254.049V254.049ZM433.234 129.411C341.527 134.511 250.343 180.249 189.404 252.871C222.377 252.803 267.238 260.819 319.417 276.712C352.908 207.009 393.77 154.841 433.234 129.411ZM507.306 118.375C498.187 114.281 488.112 112.665 478.137 113.695C465.181 114.849 451.608 119.802 437.812 128.076C469.776 126.618 501.761 130.458 532.418 139.436C525.963 130.453 517.307 123.201 507.245 118.347L507.306 118.375Z" fill="#59DECE" fill-opacity="0.4"/>
<path d="M383.182 135.819C375.334 124.951 373.506 115.974 378.019 109.892C387.459 97.1704 423.465 98.468 472.001 113.299L471.627 114.476C423.609 99.8453 388.206 98.2582 379.05 110.618C374.886 116.24 376.678 124.708 384.156 135.061L383.182 135.819Z" fill="#59DECE" fill-opacity="0.4"/>
<path d="M243.583 200.315C230.19 181.871 227.139 166.708 234.71 156.43C250.733 134.8 312.155 137.134 395.069 162.428L394.695 163.605C312.366 138.45 251.481 135.925 235.695 157.134C228.45 166.924 231.494 181.592 244.557 199.557L243.583 200.315Z" fill="#59DECE" fill-opacity="0.4"/>
<path d="M199.206 253.848L198.06 253.325C233.808 178.568 294.081 125.478 363.392 107.679C422.192 92.623 482.95 104.089 534.435 140.083L533.709 141.1C482.532 105.319 422.188 93.8418 363.72 108.867C294.782 126.545 234.797 179.42 199.206 253.848Z" fill="#59DECE" fill-opacity="0.4"/>
<path d="M136.509 269.238L135.363 268.715C167.762 200.954 225.753 149.846 298.694 124.851C375.623 98.4345 459.33 103.891 534.39 140.099L533.855 141.221C458.975 104.949 375.635 99.6972 299.064 125.949C226.513 150.867 168.787 201.731 136.509 269.238Z" fill="#59DECE" fill-opacity="0.4"/>
<path d="M375.559 477.962C272.354 430.856 180.21 369.656 144.605 320.619L144.393 320.322L144.55 319.992C213.367 176.105 388.192 95.3558 534.251 139.999L534.45 140.09L534.575 140.257C584.154 208.549 568.53 381.088 499.756 524.886L499.521 525.379L499.032 525.156C456.857 512.108 415.609 496.342 375.559 477.962V477.962ZM145.853 320.186C195.375 388.089 353.551 479.337 498.859 523.839C567.205 380.629 582.804 209.118 533.679 141.123C388.347 96.8288 214.489 177.109 145.853 320.186Z" fill="#59DECE" fill-opacity="0.4"/>
<path d="M499.816 215.282C447.709 191.5 401.218 160.608 383.243 135.847L384.278 135.117C409.15 169.383 489.105 215.512 562.518 237.945L562.144 239.122C540.852 232.536 520.03 224.571 499.816 215.282V215.282Z" fill="#59DECE" fill-opacity="0.4"/>
<path d="M442.966 336.254C353.85 295.579 274.287 242.726 243.516 200.376L244.552 199.646C287.171 258.369 424.135 337.404 549.873 375.814L549.492 377.006C513.106 365.733 477.52 352.119 442.966 336.254V336.254Z" fill="#59DECE" fill-opacity="0.4"/>
<path d="M227.149 393.94L226.003 393.417C294.708 249.569 432.948 135.874 534.038 139.939L533.99 141.173C433.368 137.141 295.646 250.489 227.149 393.94Z" fill="#59DECE" fill-opacity="0.4"/>
<path d="M354.093 467.217L352.947 466.694C421.635 323.039 502.673 176.569 533.585 140.187L534.565 140.981C503.704 177.295 422.745 323.637 354.093 467.217Z" fill="#59DECE" fill-opacity="0.4"/>
<path d="M498.318 524.976L498.624 524.333C567.227 380.894 582.918 208.878 533.561 140.941L532.425 139.421L534.205 139.979C601.982 160.695 654.392 205.764 681.891 266.711C696.445 299.268 703.397 334.594 702.241 370.115C701.247 407.766 691.947 445.324 674.574 481.747C689.862 502.932 693.384 520.386 684.603 532.152C666.073 557.173 594.942 554.488 498.972 525.165L498.318 524.976ZM535.643 141.764C583.851 210.943 568.077 381.61 500.062 524.242C595.14 553.212 665.376 555.981 683.59 531.508C692.019 520.128 688.479 503.102 673.344 482.26L673.132 481.963L673.289 481.634C690.617 445.226 700.003 407.763 701.006 370.17C702.138 334.826 695.217 299.679 680.746 267.281C653.712 207.075 602.208 162.565 535.643 141.764Z" fill="#59DECE" fill-opacity="0.4"/>
<path d="M562.083 239.094L562.457 237.917C610.475 252.548 645.878 254.135 655.034 241.776C659.191 236.168 657.414 227.707 649.928 217.332L650.956 216.618C658.804 227.485 660.639 236.447 656.119 242.544C646.572 255.217 610.619 253.926 562.083 239.094Z" fill="#59DECE" fill-opacity="0.4"/>
<path d="M549.573 376.952L549.954 375.76C632.315 400.929 693.221 403.41 708.924 382.217C716.169 372.428 713.117 357.775 700.062 339.794L701.09 339.08C714.483 357.524 717.534 372.686 709.963 382.965C693.894 404.574 632.397 402.242 549.573 376.952Z" fill="#59DECE" fill-opacity="0.4"/>
<path d="M620.953 548.765L619.807 548.242C688.374 404.878 649.749 222.241 533.709 141.1L534.434 140.083C650.951 221.552 689.763 404.892 620.953 548.765Z" fill="#59DECE" fill-opacity="0.4"/>
<path d="M683.628 533.419L682.482 532.896C751.021 389.592 684.321 213.85 533.8 141.142L534.334 140.019C685.49 213.036 752.459 389.502 683.628 533.419Z" fill="#59DECE" fill-opacity="0.4"/>
<path d="M284.556 662.014L284.431 661.848C234.868 593.562 250.476 421.017 319.243 277.234L319.478 276.74L319.982 276.97C465.873 321.537 624.856 413.317 674.379 481.53L674.591 481.828L674.435 482.157C605.625 626.03 430.8 706.778 284.741 662.135L284.556 662.014ZM320.154 278.25C251.831 421.453 236.216 592.957 285.341 660.952C430.681 705.231 604.531 624.929 673.161 481.903C623.593 413.979 465.427 322.827 320.154 278.25Z" fill="#59DECE" fill-opacity="0.4"/>
<path d="M574.402 602.489C531.776 543.781 394.812 464.746 269.081 426.321L269.455 425.144C395.415 463.637 532.671 542.878 575.446 601.781L574.402 602.489Z" fill="#59DECE" fill-opacity="0.4"/>
<path d="M434.803 666.985C409.931 632.719 329.977 586.59 256.563 564.157L256.937 562.98C330.564 585.474 410.826 631.816 435.831 666.271L434.803 666.985Z" fill="#59DECE" fill-opacity="0.4"/>
<path d="M284.921 662.108L284.969 660.873C385.668 664.941 523.374 551.585 591.956 408.191L593.102 408.714C524.321 552.527 386.073 666.2 284.921 662.108Z" fill="#59DECE" fill-opacity="0.4"/>
<path d="M285.435 661.887L284.47 661.101C315.316 624.78 396.275 478.438 464.936 334.879L466.082 335.402C397.379 479.051 316.347 625.505 285.435 661.887Z" fill="#59DECE" fill-opacity="0.4"/>
<path d="M252.5 649.878C200.347 626.074 160.002 586.294 137.112 535.282C122.558 502.726 115.606 467.4 116.762 431.879C117.748 394.243 127.064 356.692 144.422 320.262C129.134 299.077 125.612 281.622 134.392 269.856C152.938 244.842 224.076 247.513 320.039 276.85L320.724 277.053L320.418 277.697C251.821 421.121 236.16 593.113 285.488 661.073L286.624 662.594L284.843 662.036C273.796 658.698 262.991 654.636 252.5 649.878V649.878ZM318.958 277.832C223.881 248.862 153.644 246.094 135.431 270.567C127.001 281.947 130.542 298.972 145.676 319.814L145.888 320.111L145.731 320.441C128.404 356.848 119.017 394.312 118.037 431.896C116.889 467.234 123.8 502.378 138.266 534.771C165.343 594.925 216.802 639.414 283.414 660.272C235.184 591.138 250.929 420.495 318.958 277.832Z" fill="#59DECE" fill-opacity="0.4"/>
<path d="M118.028 462.985C104.643 444.562 101.584 429.378 109.148 419.114C125.171 397.485 186.608 399.825 269.507 425.113L269.133 426.29C186.773 401.121 125.86 398.655 110.179 419.84C102.919 429.622 105.978 444.297 119.026 462.256L118.028 462.985Z" fill="#59DECE" fill-opacity="0.4"/>
<path d="M168.14 585.492C160.293 574.624 158.457 565.662 162.955 559.573C172.402 546.836 208.401 548.149 256.937 562.98L256.563 564.157C208.545 549.526 173.107 548.014 163.986 560.299C159.822 565.921 161.621 574.374 169.092 584.742L168.14 585.492Z" fill="#59DECE" fill-opacity="0.4"/>
<path d="M284.586 661.991C168.092 580.552 129.257 397.183 198.06 253.325L199.206 253.848C130.646 397.197 169.271 579.833 285.326 660.982L284.586 661.991Z" fill="#59DECE" fill-opacity="0.4"/>
<path d="M284.67 662.048C133.53 589.039 66.5606 412.573 135.385 268.67L136.531 269.193C67.9915 412.497 134.699 588.224 285.235 660.94L284.67 662.048Z" fill="#59DECE" fill-opacity="0.4"/>
<path d="M311.322 684.759C300.533 679.584 291.308 671.745 284.556 662.014C273.607 658.673 262.897 654.619 252.5 649.878C200.347 626.075 160.002 586.294 137.112 535.282C122.558 502.726 115.606 467.4 116.762 431.879C117.767 394.087 127.118 356.462 144.578 319.933L145.034 318.975L145.654 319.822C195.083 387.92 353.727 479.436 499.405 523.942L500.09 524.145L499.783 524.789C453.343 621.896 392.508 685.039 341 689.58C330.845 690.6 320.597 688.935 311.322 684.759V684.759ZM285.341 660.952L285.459 661.133C300.082 681.213 318.675 690.373 340.862 688.424C391.812 683.92 452.112 621.316 498.318 524.976C353.237 480.506 195.392 389.5 145.24 321.473C128.083 357.521 118.976 394.712 118.001 431.971C116.853 467.309 123.764 502.453 138.231 534.846C165.541 595.525 217.703 640.335 285.143 660.898L285.341 660.952Z" fill="#59DECE" fill-opacity="0.4"/>
<path d="M317.357 598.881C228.241 558.206 148.678 505.353 117.915 462.988L118.943 462.273C161.562 520.996 298.526 600.031 424.279 638.448L423.898 639.64C387.507 628.364 351.916 614.748 317.357 598.881V598.881Z" fill="#59DECE" fill-opacity="0.4"/>
<path d="M284.752 664.963C232.646 641.181 186.154 610.289 168.186 585.512L169.215 584.798C194.086 619.064 274.041 665.193 347.439 687.619L347.065 688.796C325.778 682.212 304.961 674.25 284.752 664.963Z" fill="#59DECE" fill-opacity="0.4"/>
<path d="M245.419 653.149C229.237 645.711 215.716 633.675 206.616 618.608C175.363 568.206 182.569 484.01 225.926 393.382L227.149 393.94C183.97 484.194 176.744 567.962 207.776 618.008C224.334 644.691 251.051 659.526 285.046 660.908L284.997 662.143C271.326 661.746 257.872 658.689 245.419 653.149Z" fill="#59DECE" fill-opacity="0.4"/>
<path d="M274.044 670.149L273.8 670.037C264.158 664.034 306.606 563.592 352.94 466.709L354.086 467.232C293.304 594.314 268.008 664.971 274.465 668.993C275.137 669.3 277.381 669.431 284.463 661.116L285.428 661.902C279.82 668.487 276.199 671.132 274.044 670.149Z" fill="#59DECE" fill-opacity="0.4"/>
<path d="M311.322 684.759C301.206 680.142 292.143 672.453 284.431 661.848L283.295 660.327L285.082 660.87C316.844 670.443 350.077 674.47 383.263 672.768C423.134 647.889 464.667 595.171 498.563 524.305L498.784 523.841L499.288 524.071C552.222 540.253 597.491 548.311 630.468 548.117C647.457 527.763 661.828 505.442 673.259 481.656L673.715 480.699L674.35 481.553C689.888 502.798 693.382 520.312 684.649 532.173C676.424 543.282 657.81 548.939 631.253 549.204C569.626 623.077 476.808 669.473 383.675 674.013C369.079 683.07 354.695 688.436 340.987 689.647C330.83 690.643 320.586 688.955 311.322 684.759V684.759ZM286.526 662.604C300.924 681.634 319.208 690.27 340.817 688.403C353.772 687.249 367.36 682.304 381.106 674.097C349.16 675.507 317.2 671.628 286.572 662.625L286.526 662.604ZM499.489 525.329C466.06 595.06 425.22 647.22 385.756 672.649C477.463 667.55 568.625 621.819 629.563 549.197C596.636 549.287 551.776 541.27 499.535 525.349L499.489 525.329ZM673.985 483.062C662.749 506.272 648.721 528.083 632.201 548.033C657.773 547.647 675.675 542.157 683.61 531.426C691.932 520.233 688.603 503.505 674.001 483.069L673.985 483.062Z" fill="#59DECE" fill-opacity="0.4"/>
<path d="M423.929 639.654L424.31 638.462C506.655 663.624 567.561 666.105 583.264 644.912C590.509 635.123 587.458 620.47 574.402 602.489L575.446 601.782C588.823 620.219 591.889 635.388 584.319 645.667C568.25 667.276 506.813 664.972 423.929 639.654Z" fill="#59DECE" fill-opacity="0.4"/>
<path d="M347.019 688.775L347.393 687.598C395.427 702.236 430.814 703.816 439.971 691.456C444.127 685.849 442.351 677.388 434.864 667.013L435.893 666.299C443.74 677.166 445.576 686.128 441.056 692.225C431.57 704.926 395.556 703.606 347.019 688.775Z" fill="#59DECE" fill-opacity="0.4"/>
<path d="M319.818 682.188C307.466 676.529 295.672 669.768 284.586 661.991L285.327 660.982C336.496 696.777 396.847 708.24 455.316 693.215C524.268 675.507 584.195 622.714 619.807 548.242L620.953 548.765C585.205 623.522 524.948 676.618 455.628 694.395C410.304 706.137 362.201 701.814 319.818 682.188V682.188Z" fill="#59DECE" fill-opacity="0.4"/>
<path d="M291.167 665.086C288.997 664.096 286.827 663.105 284.642 662.108L285.176 660.986C359.947 697.098 443.297 702.483 519.912 676.178C592.448 651.253 650.174 600.389 682.423 532.942L683.569 533.465C651.17 601.226 593.187 652.319 520.322 677.349C445.672 702.965 364.544 698.577 291.167 665.086Z" fill="#59DECE" fill-opacity="0.4"/>
<path d="M280.381 673.132C274.116 670.272 268.882 667.592 266.142 666.196C262.224 664.189 253.353 659.302 247.519 655.692C241.686 652.082 241.778 652.124 233.73 646.757C232.216 645.757 230.469 644.504 228.767 643.272L226.535 641.67C216.391 634.259 206.718 626.249 197.57 617.685C192.291 612.598 186.196 606.41 181.99 601.922C178.459 598.124 173.954 592.935 170.812 589.024C165.958 582.965 160.009 574.986 156.018 569.303C152.027 563.62 147.696 556.852 144.951 552.029C136.97 538.569 130.053 524.53 124.259 510.036C121.516 503.137 118.602 494.958 116.817 489.171C114.685 482.278 111.897 472.153 110.16 464.275C106.685 448.573 104.492 432.625 103.601 416.582C103.09 401.116 103.478 385.634 104.764 370.211C105.566 361.624 106.842 353.086 108.586 344.633C109.515 339.83 110.96 334.096 112.344 328.571C112.975 326.072 113.579 323.67 114.113 321.455C116.32 312.944 119.088 304.582 122.4 296.422L122.893 295.19C126.296 286.184 130.19 277.363 134.558 268.766C135.498 267.064 136.502 265.19 137.533 263.257C140.371 257.959 143.604 251.948 146.452 247.292C150.984 239.661 155.938 232.278 161.293 225.177C162.372 223.848 163.565 222.28 164.788 220.725C168.486 215.965 172.679 210.593 176.253 206.523C181.764 200.259 189.112 192.52 194.568 187.269C200.025 182.018 206.941 175.849 212.139 171.61C216.003 168.455 225.851 160.583 233.878 155.285C246.229 147.115 262.998 137.793 273.598 132.286C279.25 129.4 286.781 126.317 293.404 123.657C295.644 122.858 297.685 121.968 299.666 121.051C306.555 118.315 313.591 115.951 320.744 113.968C330.15 111.322 342.733 108.45 351.368 106.526C359.389 104.839 367.504 103.617 375.672 102.865C386.106 101.889 400.271 101.124 410.894 100.963C417.174 100.861 426.507 101.259 435.866 102.034C443.123 102.614 452.47 103.765 459.101 104.879C469.963 106.606 480.723 108.902 491.334 111.759C496.986 113.209 508.025 116.59 515.989 119.515C521.637 121.601 526.036 123.299 529.067 124.591C537.51 128.19 538.342 128.551 547.128 132.835C548.305 133.372 558.865 138.502 571.619 146.29C579.116 150.86 585.177 155.047 585.424 155.232C587.701 156.818 590.909 159.065 593.296 160.811C595.045 162.1 597.172 163.727 599.109 165.285L601.483 167.097C604.034 169.045 607.493 171.899 611.759 175.558C614.102 177.593 617.305 180.476 621.518 184.365C626.991 189.396 633.116 195.597 637.121 200.157C640.09 203.534 643.327 207.362 646.491 211.228C650.881 216.255 655.042 221.476 658.976 226.89L659.219 227.238C665.338 235.695 671.009 244.454 676.21 253.481C679.711 259.96 684.986 269.745 688.482 277.133C689.789 279.897 694.268 289.518 696.925 297.379L697.434 298.85C699.906 306.044 702.993 314.994 705.023 321.986C706.762 328.062 708.873 336.876 710.285 343.914C711.697 350.951 713.228 361.177 714.214 369.149C715.194 377.72 715.827 386.278 715.854 392.083C715.893 399.114 715.972 409.733 715.574 417.565C715.265 423.49 714.431 432.198 713.34 440.862C711.476 455.036 708.535 469.055 704.539 482.801C699.831 498.347 694.028 513.555 687.173 528.316C683.755 535.499 678.643 544.987 674.548 551.952C671.719 556.763 667.802 562.607 664.342 567.767C663.293 569.346 662.272 570.866 661.346 572.265C656.321 579.475 650.92 586.427 645.164 593.093C640.845 598.262 634.505 605.095 629.069 610.537C623.633 615.979 616.186 622.872 609.688 628.357C606.005 631.485 601.359 634.993 596.869 638.408C594.89 639.909 592.977 641.349 591.265 642.68C584.001 647.967 576.449 652.862 568.642 657.345C564.526 659.82 559.412 662.513 554.47 665.121C552.359 666.234 550.345 667.3 548.51 668.302C540.108 672.553 531.472 676.346 522.643 679.664C515.638 682.423 507.369 685.298 501.594 686.997C493.164 689.469 481.294 692.485 471.347 694.703C464.519 696.231 455.55 697.529 450.817 698.174C445.256 698.914 437.944 699.584 432.067 700.089L430.284 700.241C418.579 701.189 406.821 701.33 395.096 700.664C385.108 700.04 377.6 699.4 372.144 698.749C365.302 697.922 356.067 696.457 349.128 695.093C341.936 693.632 333.565 691.76 327.856 690.193L327.088 689.969C324.238 689.197 320.711 688.206 318.025 687.363C313.17 685.839 306.987 683.745 303.178 682.408C302.872 682.268 294.929 679.535 283.925 674.713L280.381 673.132ZM537.909 130.048C535.311 128.862 533.004 127.809 528.402 125.909C525.387 124.624 521.003 122.932 515.386 120.861C507.468 117.957 496.467 114.575 490.845 113.138C480.28 110.31 469.572 108.024 458.764 106.292C452.184 105.11 442.854 104.039 435.619 103.451C426.306 102.697 417.032 102.253 410.791 102.392C400.183 102.559 386.078 103.316 375.666 104.283C367.564 105.002 359.513 106.193 351.556 107.85C342.921 109.774 330.376 112.645 320.992 115.284C313.889 117.253 306.902 119.604 300.064 122.325L293.786 124.924C287.193 127.562 279.735 130.569 274.1 133.498C263.522 138.998 246.777 148.349 234.491 156.42C226.508 161.702 216.69 169.552 212.856 172.684C207.709 176.855 200.858 182.963 195.379 188.222C189.901 193.481 182.619 201.159 177.138 207.4C173.594 211.447 169.4 216.819 165.716 221.549C164.508 223.111 163.322 224.627 162.221 226.001C156.898 233.07 151.969 240.415 147.453 248.003C144.655 252.592 141.437 258.572 138.606 263.856C137.567 265.804 136.564 267.678 135.624 269.38C131.28 277.933 127.403 286.706 124.008 295.662L123.514 296.894C120.235 305.008 117.49 313.319 115.298 321.777C114.772 323.978 114.161 326.395 113.53 328.894C112.131 334.412 110.7 340.115 109.785 344.889C108.049 353.29 106.779 361.776 105.982 370.311C105.013 383.639 104.027 402.478 104.821 416.52C105.693 432.508 107.883 448.4 111.367 464.043C113.026 471.813 115.875 481.929 117.999 488.8C119.766 494.543 122.673 502.7 125.393 509.569C131.18 524.003 138.073 537.987 146.012 551.403C148.756 556.189 153.072 562.949 157.031 568.581C160.991 574.213 166.993 582.235 171.839 588.272C174.966 592.177 179.432 597.33 182.955 601.105C187.123 605.558 193.224 611.731 198.488 616.811C207.584 625.344 217.2 633.329 227.285 640.719L229.533 642.328C231.226 643.538 232.973 644.791 234.457 645.777C242.428 651.11 242.428 651.11 248.2 654.692C253.973 658.273 262.769 663.162 266.708 665.124C269.975 666.779 276.709 670.217 284.491 673.642C295.449 678.443 303.325 681.2 303.645 681.309C307.445 682.625 313.606 684.727 318.461 686.25C321.117 687.08 324.651 688.056 327.479 688.836L328.247 689.059C333.925 690.613 342.237 692.531 349.435 693.939C356.335 695.268 365.541 696.755 372.352 697.569C377.771 698.221 385.263 698.854 395.229 699.486C406.891 700.139 418.586 700 430.229 699.068L431.997 698.909C437.827 698.383 445.163 697.742 450.701 697.01C454.487 696.479 464.074 695.135 471.104 693.572C481.028 691.362 492.868 688.333 501.269 685.883C507.021 684.192 515.245 681.333 522.205 678.59C530.973 675.283 539.543 671.496 547.877 667.248C549.705 666.261 551.741 665.187 553.845 664.089C558.803 661.488 563.825 658.753 567.957 656.322C575.675 651.842 583.143 646.964 590.332 641.708C592.045 640.377 593.965 638.922 595.944 637.421C600.434 634.006 605.043 630.536 608.696 627.431C615.223 621.886 622.796 614.923 628.019 609.694C633.243 604.464 639.771 597.353 644.034 592.304C649.759 585.678 655.134 578.769 660.136 571.603C661.062 570.204 662.09 568.67 663.132 567.105C666.585 561.96 670.486 556.109 673.301 551.328C677.382 544.393 682.426 534.929 685.884 527.782C692.718 513.047 698.496 497.864 703.176 482.343C707.181 468.677 710.135 454.737 712.014 440.639C713.084 432.02 713.94 423.304 714.228 417.424C714.627 409.629 714.556 399.031 714.495 392.046C714.455 386.308 713.846 377.779 712.851 369.238C711.95 361.322 710.377 351.223 708.963 344.112C707.549 337 705.449 328.319 703.711 322.28C701.72 315.324 698.641 306.396 696.177 299.224L695.668 297.753C692.999 289.996 688.545 280.44 687.253 277.683C683.758 270.332 678.498 260.554 675.005 254.097C669.815 245.11 664.165 236.385 658.078 227.955L657.85 227.651C654.392 223.195 650.003 217.603 645.443 212.061C616.771 179.175 578.625 154.861 534.089 141.2L533.967 141.144L534.341 139.967C569.3 150.411 601.412 168.423 628.298 192.669C625.783 190.137 623.116 187.572 620.653 185.282C616.441 181.393 613.253 178.517 610.919 176.504C606.668 172.852 603.232 170.027 600.696 168.086L598.322 166.274C596.372 164.783 594.236 163.134 592.525 161.806C590.16 160.053 586.982 157.82 584.698 156.249C584.408 156.116 578.421 151.89 570.955 147.335C558.254 139.589 547.733 134.495 546.564 133.943C542.447 132.119 540.124 131.059 537.909 130.048Z" fill="#59DECE" fill-opacity="0.4"/>
<path d="M674.008 483.055L673.373 482.2C623.943 414.103 465.315 322.594 319.637 278.087L318.937 277.877L319.243 277.234C365.684 180.127 426.541 116.976 478.048 112.435C500.341 110.46 519.842 120.017 534.486 140.016C602.219 160.822 654.498 205.776 681.963 266.835C696.516 299.391 703.469 334.717 702.313 370.238C701.308 408.03 691.956 445.656 674.489 482.2L674.008 483.055ZM443.455 324.128C546.049 370.954 637.758 431.738 673.773 480.616C690.93 444.568 700.044 407.363 701.035 370.11C702.167 334.766 695.246 299.619 680.774 267.222C653.464 206.542 601.317 161.74 533.877 141.177L533.694 141.093L533.575 140.912C518.953 120.831 500.36 111.671 478.172 113.621C427.223 118.162 366.924 180.765 320.696 277.113C362.623 290.135 403.631 305.84 443.455 324.128V324.128Z" fill="#59DECE" fill-opacity="0.4"/>
<path d="M649.866 217.305C624.995 183.039 545.011 136.933 471.627 114.476L472.001 113.299C545.627 135.793 625.874 182.129 650.895 216.59L649.866 217.305Z" fill="#59DECE" fill-opacity="0.4"/>
<path d="M700.047 339.788C657.399 281.124 520.457 202.045 394.726 163.619L395.1 162.442C521.044 200.928 658.315 280.176 701.075 339.073L700.047 339.788Z" fill="#59DECE" fill-opacity="0.4"/>
<path d="M593.102 408.715L591.956 408.192C635.119 317.931 642.36 234.17 611.32 184.101C594.762 157.418 568.081 142.508 534.051 141.202L534.038 139.939C568.486 141.345 595.555 156.378 612.342 183.438C643.703 233.89 636.443 318.08 593.102 408.715Z" fill="#59DECE" fill-opacity="0.4"/>
<path d="M466.082 335.402L464.936 334.879C525.702 207.79 551.02 137.125 544.542 133.112C543.912 132.715 541.633 132.658 534.565 140.981L533.585 140.187C539.419 133.324 543.125 130.735 545.229 132.059C554.855 138.056 512.423 238.505 466.082 335.402Z" fill="#59DECE" fill-opacity="0.4"/>
<path d="M145.24 321.473L144.605 320.619C129.14 299.298 125.601 281.763 134.364 269.916C142.605 258.815 161.219 253.158 187.783 252.878C249.477 178.98 342.227 132.609 435.345 128.062C449.942 119.005 464.325 113.639 478.11 112.463C500.462 110.479 520.01 120.094 534.651 140.255L535.787 141.775L533.984 141.226C502.229 131.648 469 127.622 435.819 129.334C395.932 154.206 354.399 206.924 320.511 277.813L320.276 278.306L319.787 278.083C266.838 261.894 221.584 253.843 188.592 254.03C171.603 274.385 157.232 296.705 145.801 320.491L145.24 321.473ZM186.797 254.049C161.225 254.435 143.338 259.932 135.388 270.657C127.075 281.871 130.41 298.585 145.021 319.042C156.254 295.826 170.279 274.007 186.797 254.049V254.049ZM433.234 129.411C341.527 134.511 250.343 180.25 189.404 252.871C222.377 252.803 267.238 260.82 319.417 276.712C352.908 207.009 393.77 154.841 433.234 129.411ZM507.306 118.375C498.187 114.281 488.112 112.665 478.137 113.695C465.181 114.849 451.608 119.802 437.812 128.076C469.776 126.618 501.761 130.458 532.418 139.436C525.963 130.453 517.307 123.201 507.245 118.347L507.306 118.375Z" fill="#59DECE" fill-opacity="0.4"/>
<path d="M383.182 135.819C375.334 124.951 373.506 115.975 378.019 109.892C387.459 97.1705 423.465 98.4681 472.001 113.299L471.627 114.476C423.609 99.8454 388.206 98.2583 379.05 110.618C374.886 116.24 376.678 124.708 384.156 135.061L383.182 135.819Z" fill="#59DECE" fill-opacity="0.4"/>
<path d="M243.583 200.315C230.19 181.871 227.139 166.708 234.71 156.43C250.733 134.8 312.155 137.134 395.069 162.428L394.695 163.605C312.366 138.45 251.481 135.925 235.695 157.134C228.45 166.924 231.494 181.592 244.557 199.558L243.583 200.315Z" fill="#59DECE" fill-opacity="0.4"/>
<path d="M199.206 253.848L198.06 253.325C233.808 178.568 294.081 125.478 363.392 107.679C422.192 92.6231 482.95 104.089 534.435 140.083L533.709 141.1C482.532 105.319 422.188 93.8419 363.72 108.867C294.782 126.545 234.797 179.42 199.206 253.848Z" fill="#59DECE" fill-opacity="0.4"/>
<path d="M136.509 269.238L135.363 268.715C167.762 200.954 225.753 149.846 298.694 124.851C375.623 98.4347 459.33 103.891 534.39 140.099L533.855 141.222C458.975 104.949 375.635 99.6974 299.064 125.949C226.513 150.867 168.787 201.731 136.509 269.238Z" fill="#59DECE" fill-opacity="0.4"/>
<path d="M375.559 477.962C272.354 430.856 180.21 369.656 144.605 320.619L144.393 320.322L144.55 319.993C213.367 176.105 388.192 95.3559 534.251 140L534.45 140.09L534.575 140.257C584.154 208.55 568.53 381.088 499.756 524.886L499.521 525.38L499.032 525.156C456.857 512.108 415.609 496.342 375.559 477.962V477.962ZM145.853 320.186C195.375 388.089 353.551 479.338 498.859 523.839C567.205 380.629 582.804 209.118 533.679 141.123C388.347 96.8289 214.489 177.109 145.853 320.186Z" fill="#59DECE" fill-opacity="0.4"/>
<path d="M499.816 215.283C447.709 191.5 401.218 160.608 383.243 135.847L384.278 135.117C409.15 169.383 489.105 215.512 562.518 237.945L562.144 239.122C540.852 232.536 520.03 224.572 499.816 215.283V215.283Z" fill="#59DECE" fill-opacity="0.4"/>
<path d="M442.966 336.254C353.85 295.579 274.287 242.726 243.516 200.376L244.552 199.646C287.171 258.37 424.135 337.404 549.873 375.815L549.492 377.007C513.106 365.733 477.52 352.12 442.966 336.254V336.254Z" fill="#59DECE" fill-opacity="0.4"/>
<path d="M227.149 393.94L226.003 393.417C294.708 249.569 432.948 135.874 534.038 139.939L533.99 141.174C433.368 137.141 295.646 250.489 227.149 393.94Z" fill="#59DECE" fill-opacity="0.4"/>
<path d="M354.093 467.217L352.947 466.694C421.635 323.039 502.673 176.569 533.585 140.187L534.565 140.981C503.704 177.295 422.745 323.637 354.093 467.217Z" fill="#59DECE" fill-opacity="0.4"/>
<path d="M498.318 524.976L498.624 524.333C567.227 380.894 582.918 208.878 533.561 140.941L532.425 139.421L534.205 139.979C601.982 160.695 654.392 205.764 681.891 266.711C696.445 299.268 703.397 334.594 702.241 370.115C701.247 407.766 691.947 445.324 674.574 481.747C689.862 502.932 693.384 520.386 684.603 532.153C666.073 557.173 594.942 554.488 498.972 525.166L498.318 524.976ZM535.643 141.764C583.851 210.944 568.077 381.61 500.062 524.242C595.14 553.212 665.376 555.981 683.59 531.508C692.019 520.128 688.479 503.102 673.344 482.26L673.132 481.963L673.289 481.634C690.617 445.227 700.003 407.763 701.006 370.17C702.138 334.826 695.217 299.679 680.746 267.282C653.712 207.075 602.208 162.565 535.643 141.764Z" fill="#59DECE" fill-opacity="0.4"/>
<path d="M562.083 239.095L562.457 237.918C610.475 252.548 645.878 254.136 655.034 241.776C659.191 236.169 657.414 227.708 649.928 217.333L650.956 216.618C658.804 227.486 660.639 236.447 656.119 242.544C646.572 255.217 610.619 253.926 562.083 239.095Z" fill="#59DECE" fill-opacity="0.4"/>
<path d="M549.573 376.953L549.954 375.761C632.315 400.93 693.221 403.41 708.924 382.218C716.169 372.428 713.117 357.775 700.062 339.794L701.09 339.08C714.483 357.524 717.534 372.687 709.963 382.965C693.894 404.574 632.397 402.242 549.573 376.953Z" fill="#59DECE" fill-opacity="0.4"/>
<path d="M620.953 548.765L619.807 548.242C688.374 404.878 649.749 222.242 533.709 141.1L534.434 140.083C650.951 221.552 689.763 404.892 620.953 548.765Z" fill="#59DECE" fill-opacity="0.4"/>
<path d="M683.629 533.42L682.483 532.897C751.022 389.592 684.321 213.85 533.801 141.142L534.335 140.02C685.49 213.036 752.46 389.502 683.629 533.42Z" fill="#59DECE" fill-opacity="0.4"/>
<path d="M284.556 662.014L284.431 661.848C234.868 593.562 250.476 421.017 319.243 277.234L319.478 276.74L319.982 276.97C465.873 321.537 624.856 413.317 674.379 481.531L674.591 481.828L674.435 482.157C605.625 626.03 430.8 706.779 284.741 662.135L284.556 662.014ZM320.154 278.251C251.831 421.453 236.216 592.957 285.341 660.952C430.681 705.231 604.531 624.929 673.161 481.903C623.593 413.979 465.427 322.827 320.154 278.251Z" fill="#59DECE" fill-opacity="0.4"/>
<path d="M574.402 602.489C531.776 543.781 394.812 464.746 269.081 426.321L269.455 425.144C395.415 463.637 532.671 542.878 575.446 601.782L574.402 602.489Z" fill="#59DECE" fill-opacity="0.4"/>
<path d="M434.803 666.985C409.931 632.719 329.977 586.59 256.563 564.157L256.937 562.98C330.564 585.474 410.826 631.816 435.831 666.271L434.803 666.985Z" fill="#59DECE" fill-opacity="0.4"/>
<path d="M284.921 662.108L284.969 660.873C385.668 664.941 523.374 551.585 591.956 408.191L593.102 408.714C524.321 552.527 386.073 666.2 284.921 662.108Z" fill="#59DECE" fill-opacity="0.4"/>
<path d="M285.435 661.887L284.47 661.101C315.316 624.78 396.275 478.438 464.936 334.879L466.082 335.402C397.379 479.051 316.347 625.505 285.435 661.887Z" fill="#59DECE" fill-opacity="0.4"/>
<path d="M252.5 649.878C200.347 626.075 160.002 586.294 137.112 535.282C122.558 502.726 115.606 467.4 116.762 431.879C117.748 394.243 127.064 356.692 144.422 320.262C129.134 299.077 125.612 281.622 134.392 269.856C152.938 244.842 224.076 247.513 320.039 276.85L320.724 277.053L320.418 277.697C251.821 421.121 236.16 593.113 285.488 661.073L286.624 662.594L284.843 662.036C273.796 658.698 262.991 654.636 252.5 649.878V649.878ZM318.958 277.832C223.881 248.862 153.644 246.094 135.431 270.567C127.001 281.947 130.542 298.972 145.676 319.814L145.888 320.112L145.731 320.441C128.404 356.848 119.017 394.312 118.037 431.896C116.889 467.234 123.8 502.378 138.266 534.771C165.343 594.925 216.802 639.414 283.414 660.272C235.184 591.138 250.929 420.495 318.958 277.832Z" fill="#59DECE" fill-opacity="0.4"/>
<path d="M118.028 462.985C104.643 444.562 101.584 429.378 109.148 419.114C125.171 397.485 186.608 399.826 269.507 425.113L269.133 426.29C186.773 401.121 125.86 398.655 110.179 419.84C102.919 429.623 105.978 444.298 119.026 462.256L118.028 462.985Z" fill="#59DECE" fill-opacity="0.4"/>
<path d="M168.14 585.492C160.293 574.624 158.457 565.662 162.955 559.573C172.402 546.836 208.401 548.149 256.937 562.98L256.563 564.157C208.545 549.526 173.107 548.014 163.986 560.299C159.822 565.921 161.621 574.374 169.092 584.742L168.14 585.492Z" fill="#59DECE" fill-opacity="0.4"/>
<path d="M284.586 661.991C168.092 580.552 129.257 397.183 198.06 253.325L199.206 253.848C130.646 397.197 169.271 579.833 285.326 660.982L284.586 661.991Z" fill="#59DECE" fill-opacity="0.4"/>
<path d="M284.67 662.048C133.53 589.039 66.5606 412.573 135.385 268.67L136.531 269.193C67.9915 412.497 134.699 588.224 285.235 660.94L284.67 662.048Z" fill="#59DECE" fill-opacity="0.4"/>
<path d="M311.322 684.759C300.533 679.584 291.308 671.745 284.556 662.014C273.607 658.673 262.897 654.619 252.5 649.878C200.347 626.075 160.002 586.294 137.112 535.282C122.558 502.726 115.606 467.4 116.762 431.879C117.767 394.087 127.118 356.462 144.578 319.933L145.034 318.975L145.654 319.823C195.083 387.92 353.727 479.436 499.405 523.942L500.09 524.146L499.783 524.789C453.343 621.896 392.508 685.039 341 689.58C330.845 690.6 320.597 688.935 311.322 684.759V684.759ZM285.341 660.952L285.459 661.133C300.082 681.213 318.675 690.374 340.862 688.424C391.812 683.92 452.112 621.316 498.318 524.976C353.237 480.506 195.392 389.5 145.24 321.473C128.083 357.522 118.976 394.712 118.001 431.971C116.853 467.309 123.764 502.453 138.231 534.846C165.541 595.525 217.703 640.335 285.143 660.898L285.341 660.952Z" fill="#59DECE" fill-opacity="0.4"/>
<path d="M317.357 598.881C228.241 558.206 148.678 505.353 117.915 462.988L118.943 462.273C161.562 520.996 298.526 600.031 424.279 638.448L423.898 639.64C387.507 628.364 351.916 614.748 317.357 598.881V598.881Z" fill="#59DECE" fill-opacity="0.4"/>
<path d="M284.752 664.963C232.646 641.181 186.154 610.289 168.186 585.513L169.215 584.798C194.086 619.064 274.041 665.193 347.439 687.619L347.065 688.796C325.778 682.212 304.961 674.25 284.752 664.963Z" fill="#59DECE" fill-opacity="0.4"/>
<path d="M245.419 653.149C229.237 645.711 215.716 633.675 206.616 618.608C175.363 568.206 182.569 484.01 225.926 393.382L227.149 393.94C183.97 484.194 176.744 567.962 207.776 618.008C224.334 644.691 251.051 659.527 285.046 660.908L284.997 662.143C271.326 661.746 257.872 658.689 245.419 653.149Z" fill="#59DECE" fill-opacity="0.4"/>
<path d="M274.044 670.149L273.8 670.037C264.158 664.034 306.606 563.592 352.94 466.709L354.086 467.232C293.304 594.314 268.008 664.971 274.465 668.993C275.137 669.3 277.381 669.431 284.463 661.116L285.428 661.902C279.82 668.487 276.199 671.132 274.044 670.149Z" fill="#59DECE" fill-opacity="0.4"/>
<path d="M311.322 684.759C301.206 680.142 292.143 672.453 284.431 661.848L283.295 660.327L285.082 660.87C316.844 670.443 350.077 674.47 383.263 672.768C423.134 647.889 464.667 595.171 498.563 524.305L498.784 523.841L499.288 524.071C552.222 540.253 597.491 548.311 630.468 548.117C647.457 527.763 661.828 505.442 673.259 481.657L673.715 480.699L674.35 481.553C689.888 502.798 693.382 520.312 684.649 532.173C676.424 543.282 657.81 548.939 631.253 549.204C569.626 623.077 476.808 669.473 383.675 674.013C369.079 683.07 354.695 688.436 340.987 689.647C330.83 690.643 320.586 688.956 311.322 684.759V684.759ZM286.526 662.604C300.924 681.634 319.208 690.271 340.817 688.403C353.772 687.249 367.36 682.304 381.106 674.097C349.16 675.507 317.2 671.628 286.572 662.625L286.526 662.604ZM499.489 525.329C466.06 595.06 425.22 647.22 385.756 672.649C477.463 667.55 568.625 621.819 629.563 549.197C596.636 549.287 551.776 541.27 499.535 525.35L499.489 525.329ZM673.985 483.063C662.749 506.272 648.721 528.083 632.201 548.033C657.773 547.647 675.675 542.157 683.61 531.426C691.932 520.233 688.603 503.505 674.001 483.07L673.985 483.063Z" fill="#59DECE" fill-opacity="0.4"/>
<path d="M423.929 639.655L424.31 638.463C506.655 663.624 567.561 666.105 583.264 644.913C590.509 635.123 587.458 620.47 574.402 602.489L575.446 601.782C588.823 620.219 591.889 635.389 584.319 645.667C568.25 667.276 506.813 664.972 423.929 639.655Z" fill="#59DECE" fill-opacity="0.4"/>
<path d="M347.019 688.775L347.393 687.598C395.427 702.236 430.814 703.816 439.971 691.456C444.127 685.849 442.351 677.388 434.864 667.013L435.893 666.299C443.74 677.166 445.576 686.128 441.056 692.225C431.57 704.926 395.556 703.606 347.019 688.775Z" fill="#59DECE" fill-opacity="0.4"/>
<path d="M319.818 682.188C307.466 676.529 295.672 669.768 284.586 661.991L285.327 660.982C336.496 696.777 396.847 708.24 455.316 693.215C524.268 675.507 584.195 622.714 619.807 548.242L620.953 548.765C585.205 623.522 524.948 676.618 455.628 694.395C410.304 706.137 362.201 701.814 319.818 682.188V682.188Z" fill="#59DECE" fill-opacity="0.4"/>
<path d="M291.167 665.086C288.997 664.096 286.827 663.105 284.642 662.108L285.176 660.986C359.947 697.098 443.297 702.483 519.912 676.178C592.448 651.253 650.174 600.389 682.423 532.942L683.569 533.465C651.17 601.226 593.187 652.319 520.322 677.349C445.672 702.966 364.544 698.577 291.167 665.086Z" fill="#59DECE" fill-opacity="0.4"/>
<path d="M280.015 672.965L277.937 672.016C274.183 670.212 269.419 667.873 266.106 666.197C258.959 662.571 251.288 657.977 247.613 655.771C242.144 652.492 234.463 647.292 233.962 646.936C227.808 642.633 223.415 639.554 218.307 635.474C215.283 633.073 211.849 630.322 209.322 628.167C206 625.339 202.243 622.095 199.531 619.509L198.081 618.1C194.841 615.019 190.841 611.153 187.936 608.151C182.817 602.882 179.106 598.839 176.562 595.783C172.689 591.101 165.394 582.198 160.197 575.181C155.68 569.039 151.277 562.658 148.762 558.25C147.835 556.642 146.775 554.884 145.652 553.06C143.056 548.706 140.358 544.214 138.364 540.353C136.57 536.893 130.378 524.813 126.181 514.756C123.973 509.468 120.602 500.88 118.396 494.063C116.431 487.993 112.842 476.501 110.896 467.616C107.158 451.692 104.759 435.495 103.72 419.187C103.025 403.743 103.271 388.272 104.455 372.857C105.224 364.142 106.469 355.474 108.183 346.89C109.045 342.11 110.438 336.408 111.777 330.899C112.4 328.378 112.966 325.977 113.506 323.71C115.66 315.142 118.37 306.718 121.622 298.489C124.878 290.085 128.973 280.424 132.07 273.878C134.378 269.03 137.613 263.093 140.475 257.86C141.58 255.851 142.627 253.925 143.581 252.156C148.375 243.452 153.815 235.105 159.857 227.181L162.899 223.251C166.697 218.281 171.011 212.655 174.693 208.397C179.937 202.303 187.098 194.643 192.508 189.334C197.712 184.223 204.699 177.868 209.896 173.591C213.559 170.546 222.915 162.885 230.65 157.655C242.462 149.64 258.799 140.248 270.137 134.13C277.931 130.164 285.923 126.584 294.084 123.403C302.771 119.884 311.639 116.813 320.653 114.201C326.259 112.661 345.776 107.452 361.44 104.985C369.084 103.774 380.47 102.323 389.5 101.872L391.067 101.786C396.06 101.533 402.289 101.225 407.063 101.2C411.836 101.175 421.061 101.214 427.863 101.696L430.409 101.856C433.47 102.069 436.938 102.286 439.685 102.611C445.625 103.3 455.574 104.399 462.754 105.727C475.649 107.959 488.389 110.975 500.9 114.759L500.713 115.348L500.9 114.759C508.401 117.053 516.482 119.849 522.523 122.242C527.862 124.351 529.852 125.132 535.114 127.443C540.376 129.753 545.658 132.255 547.059 133.022C550.67 134.816 554.081 136.519 558.992 139.215C563.902 141.912 566.433 143.395 571.465 146.42C575.793 149.051 576.377 149.427 585.017 155.192C586.684 156.299 588.639 157.702 590.371 158.948L592.288 160.314C596.821 163.53 605.143 170.079 609.734 174.033C615.994 179.404 623.823 186.638 629.247 192.046C633.786 196.577 639.013 202.205 642.562 206.393C647.321 212.026 653.927 220.305 658.942 227.002C660.858 229.698 662.744 232.38 664.568 235.034C666.651 238.043 668.658 241.018 670.272 243.685C675.708 252.741 681.824 263.73 685.849 271.687C691.853 283.535 698.003 300.549 702.119 312.3C705.243 321.388 707.707 330.681 709.493 340.109L710.362 345.005C711.637 352.017 713.06 359.971 713.872 366.315C714.881 373.92 715.499 381.57 715.722 389.236L715.769 392.5C715.863 399.61 715.961 408.471 715.668 415.222C715.375 421.973 714.565 431.294 713.637 438.521C712.709 445.747 710.893 456.284 709.198 464.144C707.394 472.428 704.344 483.058 703.113 487.286C698.819 501.321 693.466 515.024 687.098 528.282C679.754 542.796 671.549 556.877 662.526 570.453C657.698 577.748 652.37 584.712 646.578 591.298C645.086 592.948 643.434 594.817 641.738 596.739C637.966 600.992 634.062 605.403 630.622 608.878C624.649 615.099 618.333 620.997 611.705 626.546C610.082 627.845 608.312 629.296 606.469 630.786C602.193 634.299 597.383 638.151 593.415 641.057C586.881 645.798 578.226 651.593 571.886 655.456C565.546 659.32 557.645 663.728 551.837 666.669C548.587 668.301 537.213 673.947 528.01 677.652C519.223 681.146 512.108 683.708 507.071 685.38C498.639 688.089 488.5 690.947 481.278 692.678C475.636 694.019 467.276 695.796 460.72 696.792C452.099 698.14 440.663 699.423 432.848 700.172C420.313 701.088 407.734 701.288 395.176 700.773C390.839 700.506 379.799 699.784 371.277 698.736C364.617 697.918 355.396 696.424 348.32 695.034C341.244 693.644 332.929 691.652 327.146 690.087C316.055 687.01 312.071 685.611 303.349 682.559C301.391 681.865 294.214 679.282 284.02 674.829L280.015 672.965ZM537.94 130.062L534.533 128.507C529.287 126.204 527.311 125.429 522.003 123.334C515.962 120.942 507.927 118.167 500.464 115.871C488.005 112.107 475.318 109.108 462.477 106.894C455.344 105.624 445.409 104.458 439.504 103.694C436.788 103.383 433.342 103.158 430.297 102.952L427.751 102.792C420.987 102.309 411.867 102.282 407.041 102.301C402.214 102.32 396.091 102.64 391.105 102.878L389.538 102.965C380.186 103.534 370.868 104.564 361.621 106.051C346.01 108.524 326.553 113.724 320.977 115.241C312.011 117.834 303.191 120.892 294.557 124.402C286.431 127.561 278.473 131.121 270.714 135.067C259.405 141.162 243.136 150.53 231.353 158.522C223.67 163.722 214.335 171.337 210.688 174.39C205.499 178.688 198.541 185.021 193.33 190.147C188.119 195.273 180.819 203.07 175.589 209.134C171.936 213.369 167.629 218.98 163.846 223.92C162.797 225.263 161.78 226.62 160.812 227.872C154.796 235.733 149.389 244.023 144.636 252.674C143.683 254.443 142.636 256.369 141.531 258.378C138.675 263.596 135.448 269.518 133.161 274.321C130.056 280.846 125.99 290.483 122.748 298.858C119.518 307.034 116.821 315.404 114.673 323.915C114.17 326.144 113.567 328.583 112.952 331.125C111.605 336.613 110.226 342.285 109.357 347.043C107.662 355.585 106.444 364.211 105.708 372.882C104.524 388.243 104.28 403.66 104.976 419.05C106.012 435.298 108.403 451.436 112.124 467.302C114.061 476.128 117.626 487.591 119.591 493.625C121.78 500.398 125.164 508.919 127.342 514.23C131.508 524.236 137.692 536.294 139.373 539.757C141.359 543.596 144.034 548.059 146.637 552.398L149.74 557.603C153.232 563.386 157.019 568.993 161.088 574.403C166.277 581.399 173.541 590.288 177.36 594.927C179.902 597.909 183.577 601.99 188.649 607.238C191.6 610.261 195.614 614.06 198.801 617.172L200.274 618.573C202.956 621.145 206.704 624.367 210.011 627.188C212.53 629.322 215.949 632.066 218.957 634.459C224.041 638.51 228.419 641.583 234.482 645.844C235.052 646.249 242.679 651.406 248.125 654.657C251.8 656.863 259.441 661.443 266.541 665.048C269.854 666.724 274.603 669.056 278.357 670.86C280.298 671.746 282.941 672.953 284.317 673.58C294.48 678.019 301.62 680.604 303.57 681.275C312.269 684.335 316.229 685.705 327.282 688.783C333.037 690.371 341.304 692.305 348.358 693.703C355.412 695.101 364.602 696.582 371.225 697.401C379.716 698.435 390.718 699.158 395.055 699.425C407.548 699.945 420.061 699.751 432.531 698.844C440.332 698.087 451.73 696.805 460.328 695.466C466.816 694.456 475.138 692.681 480.773 691.355C487.981 689.654 498.083 686.797 506.538 684.117C511.606 682.496 518.623 679.906 527.387 676.42C536.555 672.79 547.861 667.168 551.157 665.558C556.9 662.714 564.955 658.14 571.11 654.392C577.265 650.644 586.031 644.809 592.557 640.046C596.511 637.17 601.357 633.28 605.552 629.821L610.803 625.588C617.393 620.06 623.676 614.19 629.625 608.004C633.035 604.552 636.916 600.148 640.682 595.911C642.377 593.989 644.029 592.12 645.529 590.455C651.27 583.928 656.554 577.03 661.346 569.806C670.334 556.267 678.512 542.229 685.839 527.762C692.183 514.566 697.512 500.925 701.783 486.953C703 482.754 706.065 472.095 707.841 463.907C709.529 456.062 711.3 445.814 712.268 438.388C713.236 430.961 714.014 421.862 714.294 415.178C714.574 408.493 714.476 399.632 714.381 392.522L714.35 389.266C714.108 381.666 713.478 374.083 712.46 366.546C711.656 360.223 710.242 352.291 708.975 345.301L708.09 340.398C706.325 331.034 703.881 321.804 700.775 312.78C696.667 301.05 690.519 284.11 684.569 272.305L683.077 269.42C710.521 331.891 708.919 405.602 677.579 475.359C676.596 477.424 675.697 479.509 674.707 481.589L674.465 482.097C605.655 625.97 430.829 706.719 284.77 662.075L285.145 660.898C430.589 705.426 604.765 624.908 673.318 481.574L673.561 481.065C713.729 396.669 709.787 305.764 663.433 235.7L661.452 232.865C660.171 231.024 658.945 229.262 657.88 227.592C652.881 220.939 646.367 212.702 641.601 207.084C638.014 202.896 632.864 197.304 628.363 192.808C622.977 187.399 615.163 180.172 609.003 174.865C604.413 170.948 596.145 164.442 591.643 161.24L589.651 159.875C587.927 158.651 585.987 157.256 584.404 156.206C575.719 150.42 575.203 150.057 570.822 147.42C565.812 144.386 563.458 143.002 558.394 140.236C553.331 137.47 550.118 135.857 546.469 134.028C545.352 133.445 541.806 131.827 537.94 130.062Z" fill="#59DECE" fill-opacity="0.4"/>
<path d="M283.873 663.451L283.747 663.284C233.933 594.628 249.559 421.108 318.749 276.553L318.998 276.029L319.502 276.259C466.2 321.085 626.049 413.352 675.855 481.949L676.067 482.246L675.91 482.575C606.737 627.211 430.897 708.371 284.086 663.512L283.873 663.451ZM319.721 277.597C251.02 421.593 235.327 594.044 284.747 662.356C430.939 706.915 605.705 626.175 674.696 482.312C624.787 414.05 465.828 322.336 319.721 277.597Z" fill="#59DECE" fill-opacity="0.4"/>
<path d="M435.003 668.479C409.998 634.025 329.613 587.59 255.79 565.079L256.164 563.902C330.194 586.525 410.893 633.122 436.039 667.75L435.003 668.479Z" fill="#59DECE" fill-opacity="0.4"/>
<path d="M575.323 603.602C532.462 544.567 394.739 465.095 268.308 426.46L268.682 425.283C395.341 463.986 533.356 543.664 576.352 602.887L575.323 603.602Z" fill="#59DECE" fill-opacity="0.4"/>
<path d="M284.237 663.544L284.286 662.31C385.535 666.392 524.001 552.418 592.96 408.231L594.107 408.754C524.948 553.36 385.94 667.652 284.237 663.544Z" fill="#59DECE" fill-opacity="0.4"/>
<path d="M284.751 663.324L283.771 662.53C314.8 626.02 396.197 478.876 465.242 334.509L466.388 335.032C397.307 479.473 315.831 626.745 284.751 663.324Z" fill="#59DECE" fill-opacity="0.4"/>
<path d="M251.625 651.246C199.183 627.31 158.628 587.306 135.565 536.07C120.931 503.313 113.954 467.769 115.144 432.033C116.119 394.228 125.503 356.417 142.968 319.799C127.594 298.483 124.1 280.969 132.863 269.122C151.543 244.06 222.992 246.781 319.502 276.259L320.187 276.462L319.88 277.106C250.907 421.323 235.151 594.256 284.761 662.6L285.897 664.12L284.117 663.562C273.018 660.171 262.163 656.056 251.625 651.246V651.246ZM318.427 277.189C222.788 248.109 152.12 245.271 133.859 269.922C125.385 281.355 128.951 298.483 144.18 319.441L144.392 319.738L144.214 320.112C126.717 356.679 117.345 394.387 116.34 432.179C115.189 467.715 122.147 503.055 136.706 535.626C163.928 596.101 215.705 640.898 282.657 661.822C234.204 592.221 250.057 420.607 318.442 277.196L318.427 277.189Z" fill="#59DECE" fill-opacity="0.4"/>
<path d="M166.804 586.502C158.864 575.593 157.08 566.563 161.607 560.451C171.083 547.655 207.285 548.969 256.096 563.889L255.721 565.066C207.443 550.316 171.787 548.832 162.692 561.22C158.499 566.865 160.306 575.377 167.886 585.831L166.804 586.502Z" fill="#59DECE" fill-opacity="0.4"/>
<path d="M116.348 463.347C102.855 444.803 99.8019 429.566 107.461 419.219C123.593 397.438 185.347 399.778 268.696 425.253L268.322 426.43C185.506 401.126 124.268 398.639 108.477 419.937C101.188 429.78 104.219 444.515 117.391 462.603L116.348 463.347Z" fill="#59DECE" fill-opacity="0.4"/>
<path d="M283.902 663.428C166.67 581.469 127.69 397.232 196.899 252.521L198.045 253.044C129.107 397.186 167.942 580.829 284.628 662.411L283.902 663.428Z" fill="#59DECE" fill-opacity="0.4"/>
<path d="M283.987 663.485C131.953 590.049 64.6697 412.638 133.878 267.928L135.024 268.451C66.1148 412.533 133.19 589.247 284.543 662.354L283.987 663.485Z" fill="#59DECE" fill-opacity="0.4"/>
<path d="M310.778 686.332C299.932 681.123 290.659 673.237 283.873 663.451C215.821 642.609 163.151 597.421 135.58 536.077C120.946 503.32 113.97 467.776 115.16 432.04C116.152 394.079 125.572 356.193 143.14 319.476L143.596 318.519L144.231 319.373C193.88 387.79 353.452 479.857 499.906 524.608L500.606 524.818L500.3 525.462C453.61 623.093 392.423 686.585 340.623 691.193C330.41 692.219 320.102 690.541 310.778 686.332ZM284.657 662.388L284.775 662.57C299.37 682.71 318.169 691.982 340.53 690.021C391.766 685.502 452.403 622.542 498.858 525.678C352.97 480.948 194.266 389.441 143.84 321.053C126.591 357.296 117.422 394.695 116.423 432.161C115.272 467.698 122.23 503.038 136.789 535.609C164.252 596.631 216.707 641.647 284.505 662.355L284.657 662.388Z" fill="#59DECE" fill-opacity="0.4"/>
<path d="M284.069 666.4C231.687 642.491 184.889 611.423 166.804 586.502L167.832 585.788C192.838 620.242 273.223 666.677 347.053 689.173L346.672 690.365C325.289 683.734 304.375 675.728 284.069 666.4V666.4Z" fill="#59DECE" fill-opacity="0.4"/>
<path d="M316.844 599.958C227.254 559.067 147.254 505.923 116.349 463.347L117.377 462.633C160.232 521.682 297.946 601.132 424.392 639.775L424.003 640.945C387.4 629.611 351.602 615.919 316.844 599.958V599.958Z" fill="#59DECE" fill-opacity="0.4"/>
<path d="M244.485 654.526C228.217 647.046 214.624 634.946 205.473 619.799C174.039 569.113 181.3 484.45 224.876 393.322L226.022 393.845C182.624 484.599 175.35 568.819 206.564 619.149C223.194 645.992 250.094 660.874 284.255 662.296L284.207 663.53C270.488 663.136 256.985 660.075 244.485 654.526Z" fill="#59DECE" fill-opacity="0.4"/>
<path d="M273.302 671.631L273.042 671.513C263.354 665.488 306.014 564.524 352.625 467.057L353.771 467.58C292.634 595.411 267.234 666.403 273.736 670.445C274.405 670.914 276.69 670.882 283.771 662.53L284.751 663.324C279.122 669.953 275.456 672.615 273.302 671.631Z" fill="#59DECE" fill-opacity="0.4"/>
<path d="M310.777 686.332C300.601 681.687 291.512 673.896 283.747 663.284L282.611 661.764L284.414 662.313C316.344 671.947 349.759 675.995 383.124 674.271C423.225 649.26 464.984 596.263 499.065 525.008L499.3 524.514L499.789 524.737C553.035 541.007 598.585 549.138 631.72 548.925C648.786 528.449 663.219 505.998 674.696 482.076L675.152 481.118L675.787 481.973C691.346 503.409 694.896 521.04 686.089 532.939C677.812 544.116 659.107 549.768 632.379 550.082C570.409 624.4 477.085 671.002 383.455 675.57C368.777 684.681 354.25 690.036 340.52 691.292C330.332 692.269 320.062 690.556 310.777 686.332V686.332ZM285.895 664.046C300.371 683.185 318.741 691.915 340.507 689.992C353.53 688.851 367.157 683.941 381.019 675.606C348.871 677.047 316.705 673.143 285.888 664.061L285.895 664.046ZM500.036 526.015C466.421 596.136 425.356 648.575 385.663 674.173C477.874 669.03 569.564 623.049 630.762 550C597.662 550.101 552.559 542.047 500.029 526.03L500.036 526.015ZM675.453 483.496C664.161 506.839 650.055 528.775 633.437 548.835C659.169 548.466 677.168 542.929 685.146 532.145C693.496 520.893 690.135 504.077 675.446 483.511L675.453 483.496Z" fill="#59DECE" fill-opacity="0.4"/>
<path d="M346.672 690.365L347.053 689.173C395.331 703.923 430.996 705.429 440.152 693.069C444.33 687.417 442.522 678.905 434.942 668.451L435.978 667.722C443.917 678.631 445.702 687.661 441.175 693.773C431.738 706.606 395.489 705.27 346.672 690.365Z" fill="#59DECE" fill-opacity="0.4"/>
<path d="M423.963 640.872L424.352 639.702C507.169 665.006 568.392 667.486 584.183 646.187C591.471 636.345 588.44 621.61 575.284 603.529L576.312 602.814C589.799 621.374 592.836 636.604 585.2 646.943C569.136 668.736 507.352 666.419 423.963 640.872Z" fill="#59DECE" fill-opacity="0.4"/>
<path d="M319.325 683.73C306.906 678.042 295.048 671.246 283.902 663.428L284.628 662.411C336.082 698.391 396.76 709.948 455.529 694.878C524.863 677.071 585.15 623.951 620.955 549.112L622.101 549.635C586.139 624.804 525.573 678.197 455.892 695.991C410.318 707.804 361.947 703.461 319.325 683.73Z" fill="#59DECE" fill-opacity="0.4"/>
<path d="M290.514 666.536C288.329 665.539 286.143 664.542 283.958 663.544L284.492 662.422C359.737 698.751 443.503 704.161 520.528 677.698C593.454 652.696 651.518 601.512 683.923 533.7L685.069 534.223C652.499 602.343 594.199 653.71 520.931 678.883C445.869 704.622 364.303 700.216 290.514 666.536Z" fill="#59DECE" fill-opacity="0.4"/>
<path d="M675.453 483.496L674.818 482.641C625.168 414.225 465.612 322.164 319.142 277.406L318.443 277.196L318.749 276.553C365.446 178.907 426.633 115.415 478.441 110.828C500.846 108.851 520.455 118.457 535.183 138.549C603.212 159.399 655.905 204.578 683.476 265.923C698.103 298.681 705.079 334.224 703.896 369.959C702.904 407.921 693.491 445.791 675.931 482.53L675.453 483.496ZM443.639 323.702C546.813 370.793 638.985 431.897 675.234 481.064C692.49 444.807 701.644 407.401 702.636 369.949C703.789 334.408 696.834 299.063 682.277 266.487C654.814 205.464 602.383 160.477 534.576 139.747L534.377 139.656L534.252 139.49C519.665 119.335 500.858 110.077 478.504 112.023C427.315 116.6 366.679 179.56 320.262 276.46C362.4 289.544 403.614 305.325 443.639 323.702V323.702Z" fill="#59DECE" fill-opacity="0.4"/>
<path d="M701.652 339.463C658.766 280.4 521.052 200.95 394.636 162.321L395.018 161.129C521.677 199.833 659.677 279.504 702.687 338.734L701.652 339.463Z" fill="#59DECE" fill-opacity="0.4"/>
<path d="M651.16 216.346C626.154 181.892 545.784 135.464 471.939 112.961L472.313 111.784C546.343 134.407 627.049 180.989 652.188 215.632L651.16 216.346Z" fill="#59DECE" fill-opacity="0.4"/>
<path d="M594.106 408.754L592.96 408.231C636.359 317.476 643.639 233.241 612.426 182.912C595.795 156.068 568.911 141.193 534.728 139.78L534.783 138.53C569.45 139.945 596.627 155.063 613.516 182.262C644.944 232.963 637.669 317.655 594.106 408.754Z" fill="#59DECE" fill-opacity="0.4"/>
<path d="M466.388 335.032L465.242 334.509C526.412 206.766 551.786 135.672 545.299 131.599C544.661 131.181 542.367 131.154 535.264 139.514L534.283 138.721C540.146 131.834 543.883 129.259 545.986 130.547C555.659 136.601 512.979 237.611 466.388 335.032Z" fill="#59DECE" fill-opacity="0.4"/>
<path d="M143.795 321.032L143.16 320.178C127.586 298.734 124.036 281.103 132.843 269.204C141.135 258.034 159.824 252.375 186.553 252.061C248.53 177.728 341.854 131.127 435.499 126.565C450.177 117.454 464.704 112.1 478.434 110.844C500.899 108.857 520.554 118.52 535.273 138.79L536.41 140.311L534.622 139.768C502.674 130.117 469.238 126.06 435.85 127.782C395.749 152.793 354.067 205.825 319.909 277.046L319.674 277.54L319.185 277.316C265.939 261.046 220.405 252.922 187.27 253.135C170.204 273.612 155.77 296.063 144.293 319.985L143.795 321.032ZM185.583 253.24C159.867 253.615 141.853 259.145 133.874 269.929C125.517 281.197 128.878 298.013 143.567 318.579C154.859 295.235 168.965 273.299 185.583 253.24V253.24ZM433.387 127.878C341.11 133.119 249.456 179.025 188.19 252.062C221.351 251.988 266.454 260.043 318.984 276.059C352.606 205.924 393.679 153.469 433.387 127.878ZM507.843 116.817C498.677 112.672 488.54 111.021 478.497 112.038C465.467 113.194 451.847 118.089 438.02 126.35C470.158 124.962 502.304 128.9 533.101 137.999C525.671 128.184 517.251 121.123 507.843 116.817Z" fill="#59DECE" fill-opacity="0.4"/>
<path d="M242.626 199.277C229.139 180.717 226.102 165.488 233.754 155.155C249.871 133.368 311.64 135.715 394.989 161.189L394.608 162.381C311.799 137.062 250.554 134.59 234.762 155.889C227.474 165.731 230.512 180.451 243.669 198.532L242.626 199.277Z" fill="#59DECE" fill-opacity="0.4"/>
<path d="M383.042 134.352C375.103 123.443 373.318 114.413 377.846 108.301C387.321 95.5046 423.539 96.8261 472.334 111.739L471.96 112.916C423.682 98.1665 388.026 96.6822 378.938 109.055C374.745 114.7 376.545 123.227 384.125 133.681L383.042 134.352Z" fill="#59DECE" fill-opacity="0.4"/>
<path d="M198.045 253.044L196.899 252.521C232.853 177.33 293.434 123.944 363.151 106.075C422.294 90.8845 483.372 102.46 535.119 138.647L534.393 139.663C482.939 103.683 422.261 92.1262 363.492 107.196C294.13 125.063 233.835 178.198 198.045 253.044Z" fill="#59DECE" fill-opacity="0.4"/>
<path d="M134.982 268.54L133.836 268.017C166.421 199.904 224.712 148.515 297.996 123.349C375.371 96.7352 459.509 102.224 535.012 138.635L534.478 139.757C459.287 103.434 375.483 98.0248 298.458 124.488C225.466 149.551 167.467 200.637 134.982 268.54Z" fill="#59DECE" fill-opacity="0.4"/>
<path d="M375.353 478.433C271.583 431.069 178.953 369.483 143.206 320.198L142.994 319.901L143.129 319.617C212.36 174.898 388.078 93.6822 534.95 138.57L535.134 138.653L535.259 138.82C585.104 207.49 569.395 380.99 500.25 525.567L500.015 526.06L499.511 525.83C457.102 512.731 415.626 496.897 375.353 478.433V478.433ZM144.407 319.745C194.249 388.031 353.231 479.774 499.354 524.52C568.07 380.531 583.77 208.065 534.328 139.761C388.232 95.1552 213.406 175.867 144.407 319.745Z" fill="#59DECE" fill-opacity="0.4"/>
<path d="M443.179 335.805C353.59 294.914 273.582 241.784 242.661 199.202L243.697 198.473C286.484 257.546 424.274 336.994 550.712 375.614L550.331 376.807C513.73 365.467 477.934 351.77 443.179 335.805V335.805Z" fill="#59DECE" fill-opacity="0.4"/>
<path d="M500.307 214.25C447.925 190.342 401.135 159.258 383.042 134.353L384.071 133.638C409.098 168.084 489.461 214.527 563.307 237.03L562.933 238.207C541.54 231.586 520.618 223.583 500.307 214.25V214.25Z" fill="#59DECE" fill-opacity="0.4"/>
<path d="M226.039 393.888L224.893 393.365C294.051 248.759 433.066 134.453 534.769 138.56L534.713 139.81C433.485 135.682 295.019 249.657 226.039 393.888Z" fill="#59DECE" fill-opacity="0.4"/>
<path d="M353.771 467.58L352.625 467.057C421.706 322.616 503.197 175.351 534.262 138.766L535.242 139.559C504.22 176.055 422.816 323.214 353.771 467.58Z" fill="#59DECE" fill-opacity="0.4"/>
<path d="M498.805 525.672L499.111 525.029C568.092 380.797 583.847 207.863 534.23 139.535L533.094 138.014L534.897 138.564C603.092 159.417 655.756 204.656 683.387 265.991C698.014 298.75 704.991 334.293 703.807 370.028C702.833 407.834 693.449 445.645 675.999 482.27C691.38 503.57 694.867 521.1 686.088 532.94C667.434 558.104 595.918 555.407 499.415 525.914L498.805 525.672ZM536.355 140.268C584.859 209.764 568.97 381.453 500.585 524.863C596.223 553.944 666.892 556.782 685.153 532.13C693.626 520.697 690.06 503.569 674.832 482.611L674.635 482.321L674.792 481.992C692.212 445.39 701.645 407.711 702.65 369.919C703.803 334.378 696.848 299.033 682.291 266.457C655.101 206.033 603.279 161.251 536.355 140.268Z" fill="#59DECE" fill-opacity="0.4"/>
<path d="M550.331 376.806L550.712 375.614C633.522 400.934 694.767 403.405 710.558 382.107C717.839 372.279 714.808 357.545 701.652 339.463L702.687 338.734C716.174 357.294 719.211 372.523 711.56 382.855C695.471 404.583 633.68 402.281 550.331 376.806Z" fill="#59DECE" fill-opacity="0.4"/>
<path d="M562.933 238.207L563.307 237.03C611.57 251.773 647.241 253.264 656.336 240.876C660.514 235.224 658.722 226.719 651.127 216.259L652.155 215.544C660.095 226.453 661.895 235.49 657.352 241.595C647.93 254.435 611.728 253.12 562.933 238.207Z" fill="#59DECE" fill-opacity="0.4"/>
<path d="M622.129 549.575L620.983 549.052C689.921 404.91 651.078 221.245 534.392 139.663L535.118 138.646C652.302 220.511 691.317 404.909 622.129 549.575Z" fill="#59DECE" fill-opacity="0.4"/>
<path d="M685.113 534.207L683.967 533.684C752.884 389.586 685.809 212.872 534.456 139.765L534.99 138.643C687.007 211.998 754.344 389.451 685.113 534.207Z" fill="#59DECE" fill-opacity="0.4"/>
<path d="M279.409 674.51C265.833 668.308 252.738 661.144 240.228 653.075C229.136 645.936 220.833 639.504 217.286 636.756C207.456 629.155 198.479 620.777 198.409 620.691C190.243 613.161 182.511 605.192 175.247 596.822C170.076 591.001 163.399 582.635 158.758 576.091C154.819 570.65 150.417 564.306 147.402 559.268C141.934 550.161 135.787 539.122 131.745 531.121C125.695 519.252 119.519 502.098 115.378 490.281C112.235 481.141 109.759 471.794 107.97 462.31L107.087 457.444C105.817 450.381 104.385 442.368 103.564 435.965C102.511 427.743 101.904 417.138 101.681 412.956C101.269 404.717 101.391 394.026 101.746 386.793C101.958 382.008 102.55 376.231 103.089 370.721C103.349 368.144 103.634 365.67 103.789 363.39C104.672 354.698 106.171 346.077 108.276 337.588C112.135 321.899 116.893 306.436 122.527 291.27C127.122 279.543 134.671 262.861 142.097 251.206C143.361 249.214 144.738 246.947 146.101 244.709C149.368 239.369 153.052 233.31 156.501 228.837C157.898 227.034 159.418 225.013 160.988 222.925C164.449 218.312 168.018 213.548 171.216 209.761C176.764 202.988 182.683 196.514 188.946 190.368C190.512 188.915 192.262 187.309 193.986 185.601C198.166 181.625 202.501 177.52 206.287 174.294C212.541 168.97 220.857 162.438 227.018 158.092C233.179 153.745 240.79 148.695 246.403 145.264C254.001 140.556 261.84 136.23 269.888 132.304C283.429 125.866 297.321 120.16 311.502 115.215C318.759 112.862 328.966 109.98 337.475 107.89C343.969 106.282 352.257 104.618 358.069 103.701C366.111 102.436 377.44 101.104 386.084 100.295C391.448 99.8105 398.663 99.461 404.069 99.3967C409.899 99.3799 416.552 99.3928 421.594 99.545C425.49 99.6838 430.659 100.039 434.665 100.338L436.048 100.441C445.185 101.096 456.48 102.845 459.723 103.378C464.746 104.195 468.468 104.856 471.101 105.42C476.648 106.622 485.552 108.628 492.374 110.394C496.948 111.571 507.741 114.803 516.414 117.997C535.927 125.064 554.658 134.052 572.317 144.824C584.695 152.386 593.493 158.952 593.486 158.967C599.134 163.239 605.651 168.344 610.068 171.999C613.697 175.004 618.217 179.107 620.54 181.26C624.133 184.576 628.856 189.19 632.274 192.717C636.142 196.705 641.093 202.207 643.667 205.203C647.008 208.969 650.784 213.697 654.235 218.169C656.245 220.707 658.211 223.299 660.11 225.914L660.708 226.806C667.73 237.297 676.518 250.215 682.03 260.909C686.354 269.294 691.163 279.394 694.293 286.652C697.029 293.019 700.175 301.376 702.119 307.491C704.899 316.228 707.877 326.658 709.654 334.063C711.105 340.08 712.815 348.875 714.001 356.466C715.187 364.056 716.263 374.146 716.867 382.764C717.275 388.706 717.335 396.202 717.392 402.803L717.413 405.964C717.499 413.872 716.621 424.51 715.852 432.027C715.415 436.855 714.528 442.625 713.568 448.161C713.164 450.727 712.745 453.25 712.445 455.444C711.097 464.119 709.091 472.683 706.444 481.065C705.742 483.204 705.009 485.565 704.249 488.023C702.49 493.632 700.684 499.42 698.909 504.128C696.051 511.695 691.836 521.647 688.411 528.881C681.13 543.535 672.871 557.703 663.687 571.293C658.197 579.501 652.139 587.332 645.557 594.73C644.313 596.093 642.953 597.585 641.594 599.15C637.644 603.541 633.145 608.5 629.373 612.243C623.295 618.427 616.881 624.285 610.158 629.792L606.202 633.141C601.503 636.88 596.176 641.115 591.784 644.247C585.158 648.946 576.389 654.67 569.979 658.484C555.829 666.913 541.009 674.213 525.663 680.314C522.761 681.449 512.664 685.31 504.575 687.847C496.006 690.493 485.773 693.273 478.496 694.924C472.815 696.192 464.431 697.903 457.94 698.838C449.212 700.1 437.652 701.291 429.76 701.969C416.886 702.778 403.974 702.827 391.094 702.116C384.474 701.645 374.774 700.806 367.498 699.834C360.927 698.948 351.832 697.383 344.875 695.938C322.296 691.243 300.333 684.054 279.409 674.51ZM159.802 575.383C164.466 581.92 171.049 590.207 176.212 596.006C183.449 604.348 191.148 612.295 199.274 619.81C199.381 619.859 208.29 628.224 218.05 635.776C221.597 638.524 229.877 644.926 240.923 652.044C272.655 672.542 308.032 687.027 345.219 694.747C352.138 696.193 361.18 697.752 367.721 698.625C374.981 699.589 384.636 700.444 391.257 700.915C404.042 701.601 416.857 701.545 429.635 700.746C437.535 700.053 449.11 698.906 457.755 697.625C464.208 696.69 472.555 694.981 478.221 693.705C485.468 692.077 495.678 689.306 504.225 686.668C509.631 685 517.51 682.203 525.201 679.175C540.486 673.094 555.249 665.823 569.346 657.43C575.74 653.609 584.451 647.931 591 643.197C595.378 640.095 600.682 635.868 605.359 632.138L609.484 628.865C616.163 623.376 622.54 617.544 628.588 611.392C632.359 607.649 636.822 602.728 640.757 598.368C642.162 596.823 643.508 595.324 644.728 593.933C651.264 586.584 657.282 578.809 662.742 570.661C671.892 557.122 680.12 543.007 687.372 528.407C690.812 521.179 695.006 511.272 697.849 503.736C699.604 499.072 701.41 493.285 703.154 487.706C703.921 485.233 704.633 482.916 705.363 480.718C707.979 472.407 709.961 463.918 711.295 455.32C711.624 453.066 712.022 450.588 712.425 448.022C713.317 442.473 714.227 436.731 714.711 431.962C715.451 424.467 716.338 413.889 716.261 406.039L716.232 402.857C716.183 396.277 716.109 388.812 715.709 382.891C715.113 374.295 713.995 364.022 712.846 356.704C711.698 349.386 709.99 340.391 708.57 334.424C706.786 327.035 703.832 316.633 701.06 307.919C699.125 301.863 696.002 293.534 693.283 287.211C690.146 279.968 685.36 269.897 681.039 261.586C675.557 250.906 666.821 237.957 659.741 227.549L659.166 226.685C657.458 224.412 655.452 221.748 653.323 218.991C623.907 181.886 583.13 154.659 534.767 139.816L534.675 139.774L534.476 139.683L534.851 138.506C569.765 148.918 601.862 166.841 628.793 190.965C625.844 188.016 622.518 184.804 619.877 182.342C617.515 180.152 613.019 176.078 609.397 173.096C604.989 169.462 598.46 164.461 592.876 160.091C592.785 160.049 584.179 153.589 571.777 145.998C554.151 135.258 535.454 126.303 515.975 119.272C507.333 116.092 496.592 112.866 492.064 111.71C485.257 109.951 476.376 107.937 470.844 106.742C468.211 106.178 464.527 105.516 459.519 104.706C456.291 104.179 445.034 102.429 435.965 101.787L434.567 101.677C430.501 101.388 425.43 101.022 421.549 100.89C416.529 100.73 409.907 100.731 404.077 100.748C398.73 100.767 391.559 101.1 386.226 101.598C377.605 102.399 366.375 103.758 358.278 104.981C352.423 105.951 344.208 107.538 337.713 109.109C329.265 111.228 319.08 114.065 311.906 116.437C297.742 121.356 283.864 127.031 270.335 133.437C262.326 137.351 254.522 141.656 246.954 146.335C241.406 149.668 233.616 154.819 227.665 159.116C221.714 163.412 213.308 169.976 207.09 175.225C203.34 178.413 199.042 182.481 194.848 186.486C193.078 188.173 191.404 189.814 189.801 191.268C183.569 197.372 177.687 203.808 172.181 210.547C168.998 214.304 165.435 219.053 161.982 223.652C160.411 225.74 158.913 227.716 157.502 229.585C154.097 234.005 150.412 240.028 147.175 245.345C145.768 247.635 144.413 249.858 143.149 251.849C135.774 263.437 128.267 280.029 123.693 291.712C118.085 306.809 113.347 322.203 109.504 337.821C107.427 346.253 105.944 354.814 105.065 363.445C104.871 365.688 104.656 368.212 104.35 370.769C103.797 376.308 103.233 382.026 103.028 386.795C102.746 393.952 102.541 404.623 102.975 412.818C103.182 416.993 103.788 427.561 104.841 435.745C105.638 442.12 107.077 450.118 108.354 457.166L109.23 462.047C111.007 471.461 113.466 480.74 116.587 489.813C120.704 501.601 126.892 518.651 132.89 530.514C136.915 538.471 143.047 549.503 148.499 558.567C151.506 563.582 155.913 569.837 159.815 575.316L159.802 575.383Z" fill="#59DECE" fill-opacity="0.4"/>
<path d="M283.873 663.451L283.747 663.284C233.933 594.628 249.559 421.108 318.749 276.553L318.998 276.029L319.502 276.259C466.2 321.085 626.049 413.352 675.855 481.949L676.067 482.246L675.91 482.575C606.737 627.211 430.897 708.371 284.086 663.512L283.873 663.451ZM319.721 277.597C251.02 421.593 235.327 594.044 284.747 662.356C430.939 706.915 605.705 626.175 674.696 482.312C624.787 414.05 465.828 322.336 319.721 277.597Z" fill="#59DECE" fill-opacity="0.4"/>
<path d="M435.003 668.479C409.998 634.025 329.613 587.59 255.79 565.079L256.164 563.902C330.194 586.525 410.893 633.122 436.039 667.75L435.003 668.479Z" fill="#59DECE" fill-opacity="0.4"/>
<path d="M575.323 603.602C532.462 544.567 394.739 465.096 268.308 426.46L268.682 425.283C395.341 463.986 533.356 543.664 576.352 602.887L575.323 603.602Z" fill="#59DECE" fill-opacity="0.4"/>
<path d="M284.237 663.544L284.286 662.31C385.535 666.392 524.001 552.418 592.96 408.231L594.107 408.754C524.948 553.36 385.94 667.652 284.237 663.544Z" fill="#59DECE" fill-opacity="0.4"/>
<path d="M284.751 663.324L283.771 662.53C314.8 626.02 396.197 478.876 465.242 334.509L466.388 335.032C397.307 479.474 315.831 626.745 284.751 663.324Z" fill="#59DECE" fill-opacity="0.4"/>
<path d="M251.626 651.246C199.183 627.31 158.628 587.306 135.565 536.07C120.931 503.313 113.955 467.769 115.145 432.033C116.119 394.228 125.503 356.417 142.968 319.799C127.594 298.483 124.1 280.969 132.864 269.122C151.543 244.06 222.993 246.781 319.503 276.259L320.187 276.462L319.881 277.106C250.907 421.323 235.152 594.256 284.761 662.6L285.898 664.12L284.117 663.562C273.019 660.171 262.164 656.056 251.626 651.246V651.246ZM318.428 277.189C222.789 248.109 152.12 245.271 133.859 269.922C125.386 281.355 128.952 298.483 144.18 319.441L144.392 319.738L144.214 320.112C126.717 356.679 117.345 394.387 116.34 432.179C115.19 467.715 122.147 503.055 136.707 535.626C163.929 596.101 215.705 640.898 282.658 661.822C234.205 592.221 250.057 420.607 318.443 277.196L318.428 277.189Z" fill="#59DECE" fill-opacity="0.4"/>
<path d="M166.804 586.503C158.865 575.593 157.08 566.564 161.607 560.452C171.083 547.655 207.285 548.969 256.096 563.889L255.722 565.066C207.444 550.317 171.787 548.832 162.692 561.22C158.499 566.865 160.307 575.377 167.886 585.831L166.804 586.503Z" fill="#59DECE" fill-opacity="0.4"/>
<path d="M116.348 463.347C102.855 444.803 99.8019 429.566 107.461 419.219C123.593 397.438 185.347 399.778 268.696 425.253L268.322 426.43C185.506 401.126 124.268 398.639 108.477 419.937C101.188 429.78 104.219 444.515 117.391 462.603L116.348 463.347Z" fill="#59DECE" fill-opacity="0.4"/>
<path d="M283.902 663.428C166.67 581.469 127.69 397.232 196.899 252.521L198.045 253.044C129.107 397.187 167.942 580.829 284.628 662.411L283.902 663.428Z" fill="#59DECE" fill-opacity="0.4"/>
<path d="M283.987 663.485C131.953 590.049 64.6697 412.638 133.878 267.928L135.024 268.451C66.1148 412.533 133.19 589.247 284.543 662.354L283.987 663.485Z" fill="#59DECE" fill-opacity="0.4"/>
<path d="M310.778 686.332C299.932 681.123 290.659 673.237 283.873 663.451C215.821 642.609 163.151 597.421 135.58 536.077C120.946 503.32 113.97 467.776 115.16 432.04C116.152 394.079 125.572 356.193 143.14 319.476L143.596 318.519L144.231 319.373C193.88 387.79 353.452 479.857 499.906 524.608L500.606 524.818L500.3 525.462C453.61 623.093 392.423 686.585 340.623 691.193C330.41 692.219 320.102 690.541 310.778 686.332ZM284.657 662.388L284.775 662.57C299.37 682.71 318.169 691.982 340.53 690.021C391.766 685.502 452.403 622.542 498.858 525.678C352.97 480.948 194.266 389.441 143.84 321.053C126.591 357.296 117.422 394.695 116.423 432.161C115.272 467.698 122.23 503.038 136.789 535.609C164.252 596.631 216.707 641.647 284.505 662.355L284.657 662.388Z" fill="#59DECE" fill-opacity="0.4"/>
<path d="M284.068 666.4C231.687 642.491 184.889 611.423 166.804 586.502L167.832 585.788C192.837 620.242 273.223 666.677 347.053 689.173L346.671 690.365C325.288 683.734 304.375 675.728 284.068 666.4V666.4Z" fill="#59DECE" fill-opacity="0.4"/>
<path d="M316.844 599.958C227.254 559.067 147.253 505.923 116.348 463.348L117.376 462.633C160.231 521.682 297.946 601.132 424.392 639.775L424.002 640.945C387.399 629.611 351.602 615.919 316.844 599.958V599.958Z" fill="#59DECE" fill-opacity="0.4"/>
<path d="M244.485 654.526C228.217 647.047 214.624 634.946 205.473 619.799C174.039 569.113 181.3 484.45 224.876 393.322L226.022 393.845C182.624 484.599 175.35 568.819 206.564 619.149C223.194 645.992 250.094 660.875 284.255 662.296L284.207 663.53C270.488 663.136 256.985 660.075 244.485 654.526Z" fill="#59DECE" fill-opacity="0.4"/>
<path d="M273.302 671.631L273.042 671.513C263.354 665.488 306.014 564.524 352.625 467.057L353.771 467.58C292.634 595.411 267.234 666.403 273.736 670.445C274.405 670.915 276.69 670.883 283.771 662.53L284.751 663.324C279.122 669.953 275.456 672.615 273.302 671.631Z" fill="#59DECE" fill-opacity="0.4"/>
<path d="M310.777 686.332C300.601 681.687 291.512 673.896 283.747 663.284L282.611 661.764L284.414 662.314C316.344 671.947 349.759 675.995 383.124 674.272C423.225 649.26 464.984 596.263 499.065 525.008L499.3 524.514L499.789 524.737C553.035 541.007 598.585 549.138 631.72 548.925C648.786 528.449 663.219 505.998 674.696 482.076L675.152 481.118L675.787 481.973C691.346 503.409 694.896 521.04 686.089 532.94C677.812 544.116 659.107 549.768 632.379 550.082C570.409 624.4 477.085 671.002 383.455 675.57C368.777 684.681 354.25 690.036 340.52 691.292C330.332 692.269 320.062 690.557 310.777 686.332V686.332ZM285.895 664.046C300.371 683.185 318.741 691.915 340.507 689.992C353.53 688.851 367.157 683.942 381.019 675.606C348.871 677.047 316.705 673.143 285.888 664.061L285.895 664.046ZM500.036 526.016C466.421 596.136 425.356 648.575 385.663 674.174C477.874 669.031 569.564 623.049 630.762 550C597.662 550.101 552.559 542.047 500.029 526.031L500.036 526.016ZM675.453 483.496C664.161 506.84 650.055 528.775 633.437 548.835C659.169 548.466 677.168 542.93 685.146 532.145C693.496 520.893 690.135 504.077 675.446 483.511L675.453 483.496Z" fill="#59DECE" fill-opacity="0.4"/>
<path d="M346.672 690.365L347.053 689.173C395.331 703.923 430.996 705.429 440.152 693.069C444.33 687.417 442.522 678.905 434.942 668.451L435.978 667.722C443.917 678.631 445.702 687.661 441.175 693.773C431.738 706.606 395.489 705.27 346.672 690.365Z" fill="#59DECE" fill-opacity="0.4"/>
<path d="M423.963 640.872L424.352 639.702C507.169 665.006 568.392 667.486 584.183 646.188C591.471 636.345 588.44 621.61 575.284 603.529L576.312 602.814C589.799 621.374 592.836 636.604 585.2 646.943C569.136 668.736 507.352 666.42 423.963 640.872Z" fill="#59DECE" fill-opacity="0.4"/>
<path d="M319.325 683.73C306.906 678.042 295.048 671.246 283.902 663.428L284.628 662.411C336.082 698.391 396.76 709.948 455.529 694.878C524.863 677.071 585.15 623.951 620.955 549.112L622.101 549.635C586.139 624.804 525.573 678.197 455.892 695.991C410.318 707.804 361.947 703.461 319.325 683.73Z" fill="#59DECE" fill-opacity="0.4"/>
<path d="M290.514 666.537C288.329 665.539 286.143 664.542 283.958 663.544L284.492 662.422C359.737 698.751 443.503 704.161 520.528 677.698C593.454 652.696 651.518 601.512 683.923 533.7L685.069 534.223C652.499 602.343 594.199 653.71 520.931 678.883C445.869 704.622 364.303 700.216 290.514 666.537Z" fill="#59DECE" fill-opacity="0.4"/>
<path d="M675.453 483.496L674.818 482.641C625.168 414.225 465.612 322.165 319.142 277.406L318.443 277.196L318.749 276.553C365.446 178.907 426.633 115.415 478.441 110.829C500.846 108.851 520.455 118.457 535.183 138.549C603.212 159.399 655.905 204.578 683.476 265.923C698.103 298.682 705.079 334.225 703.896 369.959C702.904 407.921 693.491 445.792 675.931 482.53L675.453 483.496ZM443.639 323.702C546.813 370.793 638.985 431.897 675.234 481.064C692.49 444.807 701.644 407.401 702.636 369.949C703.789 334.408 696.834 299.063 682.277 266.487C654.814 205.464 602.383 160.478 534.576 139.747L534.377 139.656L534.252 139.49C519.665 119.335 500.858 110.077 478.504 112.024C427.315 116.601 366.679 179.561 320.262 276.46C362.4 289.544 403.614 305.325 443.639 323.702V323.702Z" fill="#59DECE" fill-opacity="0.4"/>
<path d="M701.652 339.464C658.766 280.4 521.052 200.95 394.636 162.322L395.018 161.13C521.677 199.833 659.677 279.504 702.687 338.734L701.652 339.464Z" fill="#59DECE" fill-opacity="0.4"/>
<path d="M651.16 216.346C626.154 181.892 545.784 135.464 471.939 112.961L472.313 111.784C546.343 134.407 627.049 180.989 652.188 215.632L651.16 216.346Z" fill="#59DECE" fill-opacity="0.4"/>
<path d="M594.106 408.754L592.96 408.231C636.359 317.476 643.639 233.241 612.426 182.912C595.795 156.068 568.911 141.193 534.728 139.78L534.783 138.53C569.45 139.945 596.627 155.063 613.516 182.262C644.944 232.963 637.669 317.655 594.106 408.754Z" fill="#59DECE" fill-opacity="0.4"/>
<path d="M466.388 335.032L465.242 334.509C526.412 206.766 551.786 135.672 545.299 131.599C544.661 131.181 542.367 131.154 535.264 139.514L534.283 138.721C540.146 131.834 543.883 129.259 545.986 130.547C555.659 136.601 512.979 237.611 466.388 335.032Z" fill="#59DECE" fill-opacity="0.4"/>
<path d="M143.795 321.032L143.16 320.178C127.586 298.734 124.036 281.103 132.843 269.204C141.135 258.034 159.824 252.375 186.553 252.061C248.53 177.728 341.854 131.127 435.499 126.565C450.177 117.454 464.704 112.1 478.434 110.844C500.899 108.857 520.554 118.52 535.273 138.79L536.41 140.311L534.622 139.768C502.674 130.117 469.238 126.06 435.85 127.782C395.749 152.793 354.067 205.825 319.909 277.046L319.674 277.54L319.185 277.316C265.939 261.046 220.405 252.922 187.27 253.135C170.204 273.612 155.77 296.063 144.293 319.985L143.795 321.032ZM185.583 253.24C159.867 253.615 141.853 259.145 133.874 269.929C125.517 281.197 128.878 298.013 143.567 318.579C154.859 295.235 168.965 273.299 185.583 253.24V253.24ZM433.387 127.878C341.11 133.119 249.456 179.025 188.19 252.062C221.351 251.988 266.454 260.043 318.984 276.059C352.606 205.924 393.679 153.469 433.387 127.878ZM507.843 116.817C498.677 112.672 488.54 111.021 478.497 112.038C465.467 113.194 451.847 118.089 438.02 126.35C470.158 124.962 502.304 128.9 533.101 137.999C525.671 128.184 517.251 121.123 507.843 116.817Z" fill="#59DECE" fill-opacity="0.4"/>
<path d="M242.626 199.277C229.139 180.717 226.102 165.488 233.754 155.155C249.871 133.368 311.64 135.715 394.989 161.189L394.608 162.381C311.799 137.062 250.554 134.59 234.762 155.889C227.474 165.731 230.512 180.451 243.669 198.532L242.626 199.277Z" fill="#59DECE" fill-opacity="0.4"/>
<path d="M383.042 134.353C375.103 123.443 373.318 114.414 377.846 108.302C387.321 95.5048 423.539 96.8262 472.334 111.739L471.96 112.916C423.682 98.1666 388.026 96.6823 378.938 109.055C374.745 114.7 376.545 123.227 384.125 133.681L383.042 134.353Z" fill="#59DECE" fill-opacity="0.4"/>
<path d="M198.045 253.045L196.899 252.521C232.853 177.33 293.434 123.944 363.151 106.075C422.294 90.8846 483.372 102.46 535.119 138.647L534.393 139.663C482.939 103.683 422.261 92.1263 363.492 107.196C294.13 125.063 233.835 178.198 198.045 253.045Z" fill="#59DECE" fill-opacity="0.4"/>
<path d="M134.982 268.54L133.836 268.017C166.421 199.904 224.712 148.515 297.996 123.349C375.371 96.7352 459.509 102.224 535.012 138.635L534.478 139.757C459.287 103.434 375.483 98.0248 298.458 124.488C225.466 149.551 167.467 200.637 134.982 268.54Z" fill="#59DECE" fill-opacity="0.4"/>
<path d="M375.353 478.433C271.583 431.069 178.953 369.483 143.206 320.199L142.994 319.902L143.129 319.617C212.36 174.898 388.078 93.6823 534.95 138.57L535.134 138.654L535.259 138.82C585.104 207.49 569.395 380.991 500.25 525.567L500.015 526.061L499.511 525.83C457.102 512.731 415.626 496.897 375.353 478.433V478.433ZM144.407 319.745C194.249 388.031 353.231 479.775 499.354 524.52C568.07 380.531 583.77 208.065 534.328 139.761C388.232 95.1554 213.406 175.867 144.407 319.745Z" fill="#59DECE" fill-opacity="0.4"/>
<path d="M443.179 335.805C353.59 294.914 273.582 241.784 242.661 199.202L243.697 198.473C286.484 257.546 424.274 336.994 550.712 375.614L550.331 376.807C513.73 365.467 477.934 351.77 443.179 335.805V335.805Z" fill="#59DECE" fill-opacity="0.4"/>
<path d="M500.307 214.25C447.925 190.342 401.135 159.258 383.042 134.353L384.071 133.638C409.098 168.084 489.461 214.527 563.307 237.03L562.933 238.207C541.54 231.586 520.618 223.583 500.307 214.25V214.25Z" fill="#59DECE" fill-opacity="0.4"/>
<path d="M226.039 393.889L224.893 393.366C294.051 248.759 433.066 134.453 534.769 138.56L534.713 139.81C433.485 135.682 295.019 249.657 226.039 393.889Z" fill="#59DECE" fill-opacity="0.4"/>
<path d="M353.771 467.58L352.625 467.057C421.706 322.616 503.197 175.351 534.262 138.766L535.242 139.559C504.22 176.055 422.816 323.214 353.771 467.58Z" fill="#59DECE" fill-opacity="0.4"/>
<path d="M498.805 525.672L499.111 525.029C568.092 380.797 583.847 207.863 534.23 139.535L533.094 138.014L534.897 138.564C603.092 159.417 655.756 204.656 683.387 265.991C698.014 298.75 704.991 334.293 703.807 370.028C702.833 407.834 693.449 445.645 675.999 482.27C691.38 503.57 694.867 521.1 686.088 532.94C667.434 558.104 595.918 555.407 499.415 525.914L498.805 525.672ZM536.355 140.268C584.859 209.764 568.97 381.453 500.585 524.863C596.223 553.944 666.892 556.782 685.153 532.13C693.626 520.697 690.06 503.569 674.832 482.611L674.635 482.321L674.792 481.992C692.212 445.39 701.645 407.711 702.65 369.919C703.803 334.378 696.848 299.033 682.291 266.457C655.101 206.033 603.279 161.251 536.355 140.268Z" fill="#59DECE" fill-opacity="0.4"/>
<path d="M550.331 376.807L550.712 375.615C633.522 400.934 694.767 403.405 710.558 382.107C717.839 372.279 714.808 357.545 701.652 339.463L702.687 338.734C716.174 357.294 719.211 372.523 711.56 382.856C695.471 404.583 633.68 402.281 550.331 376.807Z" fill="#59DECE" fill-opacity="0.4"/>
<path d="M562.933 238.207L563.307 237.03C611.57 251.773 647.241 253.264 656.336 240.876C660.514 235.224 658.722 226.719 651.127 216.259L652.155 215.544C660.095 226.453 661.895 235.49 657.352 241.595C647.93 254.435 611.728 253.12 562.933 238.207Z" fill="#59DECE" fill-opacity="0.4"/>
<path d="M622.129 549.575L620.983 549.052C689.921 404.91 651.078 221.245 534.392 139.663L535.118 138.647C652.302 220.511 691.317 404.909 622.129 549.575Z" fill="#59DECE" fill-opacity="0.4"/>
<path d="M685.113 534.207L683.967 533.684C752.884 389.586 685.809 212.872 534.456 139.765L534.99 138.643C687.007 211.998 754.344 389.451 685.113 534.207Z" fill="#59DECE" fill-opacity="0.4"/>
<path d="M278.407 674.035L277.231 673.498L273.095 671.519L271.23 670.668C269.534 669.894 267.208 668.686 265.232 667.639C253.989 661.801 243.124 655.291 232.698 648.145C213.669 635.092 196.224 619.955 180.701 603.028C172.911 594.434 165.575 585.456 158.721 576.129C152.395 567.572 146.605 558.646 141.385 549.4C140.517 547.784 139.571 546.059 138.578 544.276C135.24 538.199 131.449 531.314 129.04 525.588C128.233 523.689 127.345 521.608 126.386 519.44C124.282 514.6 122.097 509.577 120.521 505.306C117.761 497.817 114.495 487.875 112.405 480.582C109.445 470.27 106.547 455.687 103.505 436.011C102.399 427.415 101.733 418.771 101.51 410.11C101.117 401.558 101.214 392.992 101.8 384.45C103.13 368.753 105.264 353.131 108.194 337.643C110.876 324.933 116.264 308.649 120.634 295.872C122.699 289.892 126.017 282.646 128.961 276.266L130.428 273.184C134.141 264.987 138.392 257.034 143.154 249.375C144.405 247.451 145.763 245.302 147.178 243.07C150.29 238.134 153.518 233.031 156.428 228.95C161.174 222.3 167.704 213.896 172.683 208.045C177.495 202.391 184.001 195.324 188.873 190.481C193.018 186.344 198.529 181.409 203.385 177.068L208.343 172.592C215.184 166.589 222.42 161.033 230.005 155.958C240.598 148.863 256.2 139.609 269.746 132.368C278.112 127.968 286.773 124.132 295.671 120.886L301.779 118.683C306.684 116.896 312.268 114.855 316.809 113.521C325.262 111.041 337.199 108.001 347.228 105.766C354.386 104.17 364.039 102.802 367.856 102.286C373.462 101.529 380.806 100.91 386.748 100.344L388.494 100.193C400.267 99.2495 412.093 99.1086 423.886 99.7717C433.958 100.416 441.525 101.047 446.981 101.698C454.118 102.569 463.606 104.167 470.104 105.366C478.269 106.889 488.572 109.551 491.489 110.3C498.1 112.042 503.42 113.76 509.023 115.589C511.07 116.25 518.9 118.986 523.042 120.64C528.702 122.895 533.584 124.832 541.707 128.594C554.524 134.605 566.904 141.473 578.759 149.149C584.534 152.841 591.075 157.466 594.063 159.668C598.338 162.839 604.532 167.725 610.691 172.722C614.166 175.582 618.916 179.827 622.505 183.268C627.823 188.391 633.963 194.6 638.17 199.125C645.558 207.051 654.303 218.456 660.135 226.017C661.437 227.814 662.71 229.633 663.982 231.416C667.919 237.056 672.421 243.738 675.489 249.29C676.387 250.921 677.395 252.711 678.45 254.558C680.847 258.822 683.57 263.653 685.521 267.604C689.529 275.393 693.129 283.377 696.308 291.525C697.012 293.522 697.813 295.709 698.633 298.05C700.478 303.045 702.395 308.201 703.739 312.567C706.254 320.727 708.875 330.539 710.474 337.498C712.072 344.457 713.7 353.542 714.56 359.982C715.043 363.499 716.655 375.783 717.063 385.477C717.971 401.77 717.516 418.108 715.705 434.329C713.834 451.234 708.635 472.631 706.496 481.035C704.505 488.851 700.869 499.031 698.228 506.223C696.29 511.349 693.495 517.651 691.012 523.22C690.072 525.195 689.274 527.145 688.509 528.908C684.323 538.117 679.496 547.032 674.061 555.592C669.46 562.836 664.646 570.293 660.571 575.846C655.77 582.416 649.141 590.756 644.085 596.572C639.249 602.161 632.679 609.126 627.746 613.941C623.429 618.127 617.785 623.147 612.704 627.531L608.06 631.622C602.094 636.687 595.855 641.433 589.369 645.841C584.094 649.499 577.201 653.784 571.129 657.552L566.61 660.444C558.295 665.389 549.688 669.848 540.835 673.798C527.245 679.999 513.233 685.27 498.898 689.574C490.308 691.992 478.263 694.946 468.095 697.081C462.456 698.259 454.996 699.28 449.007 700.099L447.595 700.292C434.533 701.871 421.384 702.664 408.223 702.667C403.635 702.577 391.974 702.3 383.144 701.585C376.537 701.046 367.198 699.917 359.773 698.714C348.856 696.961 338.039 694.657 327.366 691.809C319.386 689.66 314.994 688.22 309.893 686.548C306.917 685.572 299.71 683.011 295.881 681.482C290.435 679.324 286.919 677.92 283.244 676.261L278.4 674.05L278.407 674.035ZM539.308 128.866C532.34 125.685 527.825 123.879 522.646 121.825C518.519 120.178 510.742 117.448 508.709 116.794C503.1 114.98 497.817 113.261 491.237 111.533C483.38 109.477 475.424 107.631 469.95 106.626C463.447 105.479 454.018 103.835 446.897 102.97C441.463 102.312 433.933 101.68 423.876 101.042C412.165 100.353 400.418 100.47 388.724 101.391L386.978 101.541C381.133 102.098 373.693 102.764 368.131 103.467C364.336 103.976 354.736 105.35 347.651 106.87C337.645 109.097 325.745 112.135 317.315 114.608C312.819 115.926 307.257 117.959 302.352 119.745L296.244 121.949C287.388 125.159 278.77 128.967 270.453 133.346C256.921 140.557 241.371 149.78 230.8 156.867C223.272 161.94 216.093 167.492 209.311 173.489C207.774 174.882 206.073 176.383 204.338 177.958C199.497 182.306 193.994 187.226 189.841 191.378C184.992 196.214 178.605 203.262 173.724 208.867C168.843 214.471 162.274 223.076 157.543 229.695C154.647 233.747 151.426 238.834 148.343 243.711C146.942 245.95 145.585 248.099 144.327 250.038C139.59 257.641 135.365 265.54 131.679 273.682L130.212 276.764C127.298 283.121 124.001 290.323 121.957 296.257C117.564 309.006 112.182 325.237 109.552 337.953C106.626 353.396 104.501 368.974 103.185 384.627C102.601 393.119 102.503 401.636 102.891 410.139C103.107 418.748 103.766 427.341 104.867 435.886C106.94 450.852 109.903 465.688 113.74 480.317C115.853 487.602 119.065 497.502 121.816 504.969C123.391 509.203 125.553 514.197 127.657 519.037C128.6 521.198 129.511 523.271 130.318 525.17C132.71 530.851 136.493 537.715 139.808 543.763C140.817 545.553 141.747 547.271 142.615 548.887C147.81 558.078 153.568 566.953 159.856 575.463C166.684 584.757 173.992 593.704 181.75 602.268C205.738 628.401 234.243 650.186 265.958 666.622C267.872 667.642 270.198 668.812 271.88 669.617L273.729 670.46L277.849 672.432C279.102 673.004 280.63 673.702 282.052 674.35L283.87 675.18C287.507 676.84 291.03 678.23 296.301 680.326C300.214 681.875 307.375 684.415 310.351 685.391C315.421 687.049 319.813 688.489 327.74 690.632C338.372 693.477 349.149 695.776 360.026 697.518C367.368 698.701 376.722 699.838 383.292 700.377C392.099 701.1 403.706 701.371 408.302 701.446C421.39 701.441 434.465 700.657 447.456 699.099L448.875 698.891C454.841 698.08 462.287 697.053 467.881 695.89C478.026 693.763 490.079 690.831 498.594 688.415C512.869 684.121 526.824 678.866 540.359 672.688C549.163 668.766 557.72 664.332 565.985 659.412L570.536 656.571C576.585 652.811 583.449 648.549 588.746 644.846C595.192 640.478 601.397 635.776 607.334 630.763L611.985 626.656C616.998 622.259 622.681 617.276 626.969 613.113C631.888 608.327 638.428 601.385 643.25 595.827C648.283 590.019 654.884 581.738 659.671 575.198C663.708 569.646 668.515 562.204 673.101 554.99C678.507 546.49 683.306 537.634 687.464 528.486C688.298 526.735 689.095 524.786 689.981 522.768C692.45 517.228 695.253 510.949 697.177 505.852C699.865 498.719 703.525 488.604 705.38 480.799C707.52 472.395 712.638 451.052 714.526 434.227C716.345 418.057 716.814 401.768 715.926 385.523C715.512 375.88 713.909 363.655 713.425 360.138C712.552 353.765 710.948 344.982 709.342 337.765C707.737 330.547 705.191 321.007 702.608 312.833C701.236 308.564 699.363 303.356 697.526 298.383C696.71 296.189 695.894 293.995 695.185 291.85C692.03 283.739 688.449 275.794 684.455 268.046L684.223 267.557C712.43 331.433 710.646 407.011 677.856 478.291C677.286 479.488 676.709 480.7 676.132 481.912L675.883 482.436C606.736 627.211 430.897 708.372 284.085 663.512L284.459 662.335C430.754 707.031 605.816 626.136 674.778 482.022L675.027 481.499C715.929 395.56 711.35 302.907 663.021 232.107L659.204 226.722C653.396 219.189 644.598 207.778 637.326 199.923C633.141 195.427 627.016 189.225 621.707 184.124C618.156 180.682 613.422 176.481 609.955 173.643C603.848 168.615 597.67 163.736 593.389 160.617C590.423 158.407 583.921 153.818 578.176 150.139C566.349 142.527 554.007 135.713 541.234 129.744L539.308 128.866Z" fill="#59DECE" fill-opacity="0.4"/>
</g>
</svg>
