<?xml version="1.0" standalone="no"?>
<!DOCTYPE svg PUBLIC "-//W3C//DTD SVG 20010904//EN"
 "http://www.w3.org/TR/2001/REC-SVG-20010904/DTD/svg10.dtd">
<svg version="1.0" xmlns="http://www.w3.org/2000/svg"
 width="672.000000pt" height="672.000000pt" viewBox="0 0 672.000000 672.000000"
 preserveAspectRatio="xMidYMid meet">
<metadata>
Created by potrace 1.14, written by Peter Selinger 2001-2017
</metadata>
<g transform="translate(0.000000,672.000000) scale(0.100000,-0.100000)"
fill="#000000" stroke="none">
<path d="M3160 6713 c0 -5 -10 -13 -23 -18 -46 -22 -112 -60 -115 -67 -2 -5
-8 -8 -13 -8 -5 0 -39 -18 -75 -40 -36 -22 -67 -40 -69 -40 -2 0 -43 -23 -92
-51 -124 -73 -152 -89 -203 -117 -25 -13 -70 -39 -100 -57 -62 -36 -361 -208
-430 -247 -25 -14 -227 -129 -449 -257 -222 -127 -407 -231 -412 -231 -5 0 -9
-4 -9 -9 0 -5 -12 -14 -27 -20 -16 -7 -37 -17 -48 -24 -20 -12 -172 -99 -223
-127 -15 -8 -45 -26 -67 -39 -22 -13 -54 -32 -71 -42 -18 -9 -128 -73 -245
-140 -118 -67 -227 -130 -242 -138 -16 -9 -36 -21 -45 -26 -9 -6 -41 -23 -69
-39 l-53 -29 0 -2149 c0 -1561 3 -2148 11 -2148 6 0 31 -13 56 -30 24 -16 46
-30 49 -30 3 0 30 -16 60 -35 30 -19 58 -35 63 -35 5 0 11 -3 13 -7 4 -10 57
-42 81 -50 9 -3 17 -9 17 -14 0 -5 5 -9 10 -9 6 0 36 -16 66 -35 30 -19 59
-35 64 -35 6 0 10 -4 10 -10 0 -5 4 -10 9 -10 5 0 136 -76 290 -169 155 -93
287 -171 295 -174 12 -5 68 18 111 45 11 7 56 36 100 64 44 27 169 106 277
175 109 68 213 133 231 144 19 11 45 27 58 36 13 9 52 33 86 55 45 28 62 45
65 64 2 14 3 291 2 616 l-1 592 81 -50 c45 -28 104 -66 133 -84 28 -19 56 -34
62 -34 6 0 11 -3 11 -7 0 -5 10 -13 23 -19 12 -6 60 -35 107 -64 47 -29 114
-71 150 -92 36 -21 103 -63 150 -93 47 -30 91 -58 98 -61 8 -4 82 -49 165
-101 185 -116 190 -118 225 -94 26 18 166 105 204 126 10 6 46 28 80 49 104
65 447 276 478 294 16 9 108 65 205 124 l175 108 1 -53 c0 -28 2 -267 4 -531
2 -263 6 -481 9 -483 3 -3 1 -15 -4 -28 -5 -13 -6 -26 -3 -29 3 -3 6 -29 7
-58 l1 -52 138 -88 c76 -48 143 -88 148 -88 5 0 9 -4 9 -10 0 -5 7 -10 15 -10
8 0 15 -4 15 -10 0 -5 7 -10 15 -10 8 0 15 -4 15 -9 0 -5 11 -12 25 -15 14 -4
25 -11 25 -16 0 -6 4 -10 9 -10 5 0 38 -19 73 -42 35 -24 65 -43 68 -43 5 -1
74 -44 160 -100 72 -47 159 -101 178 -111 7 -3 182 96 409 232 475 286 431
259 471 280 17 10 32 21 32 26 0 4 5 8 11 8 16 0 181 103 186 116 2 7 6 851 8
1876 2 1024 5 1984 7 2133 l3 269 -30 16 c-17 8 -32 17 -35 20 -3 3 -23 15
-45 27 -22 11 -67 36 -100 53 -33 18 -91 49 -130 70 -38 21 -90 49 -115 62
-40 22 -186 101 -375 203 -33 18 -91 50 -130 70 -336 182 -312 170 -327 157
-15 -12 -154 -93 -302 -176 -11 -6 -25 -15 -30 -19 -6 -4 -112 -66 -236 -137
-124 -71 -232 -134 -240 -140 -8 -5 -37 -22 -65 -36 -27 -15 -77 -44 -111 -65
-34 -22 -65 -39 -70 -39 -5 0 -10 127 -11 288 -3 670 -7 911 -14 906 -4 -2 -9
0 -11 4 -1 5 -30 24 -63 42 -33 18 -73 41 -90 50 -16 9 -88 47 -160 85 -71 37
-134 71 -140 75 -5 4 -59 33 -120 65 -60 32 -132 70 -160 85 -214 117 -215
117 -215 103z m-275 -3481 c-3 -3 -11 0 -18 7 -9 10 -8 11 6 5 10 -3 15 -9 12
-12z m-1678 -2041 c0 -11 -5 -18 -9 -15 -4 3 -5 11 -1 19 7 21 12 19 10 -4z
m0 -76 c0 -8 -4 -12 -9 -9 -5 3 -6 10 -3 15 9 13 12 11 12 -6z m0 -240 c0 -8
-4 -12 -9 -9 -4 3 -8 9 -8 15 0 5 4 9 8 9 5 0 9 -7 9 -15z m0 -40 c0 -8 -4
-12 -9 -9 -5 3 -6 10 -3 15 9 13 12 11 12 -6z m0 -80 c0 -8 -4 -12 -9 -9 -5 3
-6 10 -3 15 9 13 12 11 12 -6z m0 -90 c0 -8 -4 -12 -9 -9 -5 3 -6 10 -3 15 9
13 12 11 12 -6z m0 -40 c0 -8 -4 -12 -9 -9 -5 3 -6 10 -3 15 9 13 12 11 12 -6z
m0 -90 c0 -8 -4 -12 -9 -9 -5 3 -6 10 -3 15 9 13 12 11 12 -6z m-6 -68 c-10
-9 -11 -8 -5 6 3 10 9 15 12 12 3 -3 0 -11 -7 -18z m6 -77 c-1 -21 -10 -18
-13 5 -1 8 2 15 6 15 5 0 8 -9 7 -20z m-2 -144 c0 -35 -2 -63 -5 -61 -5 3 -6
113 -1 123 5 10 6 -7 6 -62z m2 -111 c0 -19 -3 -35 -7 -35 -3 0 -6 16 -6 35 0
19 3 35 6 35 4 0 7 -16 7 -35z m-1 -75 c-3 -42 -12 -46 -12 -5 0 19 3 35 7 35
4 0 6 -13 5 -30z"/>
</g>
</svg>
